<!DOCTYPE svg PUBLIC "-//W3C//DTD SVG 20010904//EN" "http://www.w3.org/TR/2001/REC-SVG-20010904/DTD/svg10.dtd">
<svg version="1.0" xmlns="http://www.w3.org/2000/svg" width="1156px" height="551px" viewBox="0 0 11560 5510" preserveAspectRatio="xMidYMid meet">
<g id="layer1" fill="#722a20" stroke="none">
 <path d="M2276 5001 c-4 -5 -2 -12 3 -15 5 -4 12 -2 15 3 4 5 2 12 -3 15 -5 4 -12 2 -15 -3z"/>
 <path d="M2142 4958 c-7 -7 -12 -9 -12 -5 0 4 -10 2 -22 -5 -13 -7 -26 -13 -30 -14 -5 -1 -9 -2 -10 -3 -2 -2 -12 -4 -24 -6 -91 -18 -446 -201 -602 -312 -103 -73 -60 -67 51 7 110 74 283 167 412 223 44 19 98 43 120 53 22 9 42 18 45 18 3 1 11 5 18 9 6 5 12 6 12 2 0 -3 10 0 23 7 12 7 25 12 30 13 4 0 7 4 8 8 1 15 -7 17 -19 5z"/>
 <path d="M2107 4839 c-43 -22 -75 -44 -72 -49 3 -5 41 8 86 30 44 23 77 45 74 50 -3 6 -7 10 -8 10 -1 -1 -37 -19 -80 -41z"/>
 <path d="M4527 4803 c-3 -5 18 -27 48 -50 41 -32 56 -39 65 -30 10 9 12 8 7 -4 -3 -10 4 -25 17 -38 27 -26 43 -16 19 12 -18 20 -18 20 17 2 164 -84 389 -246 531 -383 54 -51 100 -89 103 -84 8 14 -174 185 -287 270 -157 119 -508 324 -520 305z"/>
 <path d="M1949 4752 c-75 -44 -178 -113 -232 -155 -65 -50 -29 -48 41 3 54 39 191 127 261 168 9 5 11 11 5 15 -6 3 -40 -11 -75 -31z"/>
 <path d="M3077 4684 c-4 -4 -7 -112 -7 -240 l0 -232 36 -64 c43 -76 58 -94 106 -124 48 -31 60 -30 112 5 51 35 70 57 58 65 -6 3 -16 -1 -23 -10 -20 -25 -65 -44 -102 -44 -43 0 -79 28 -115 88 l-27 47 -5 254 c-5 240 -10 278 -33 255z"/>
 <path d="M3861 4677 c-6 -8 -8 -17 -4 -20 8 -9 308 -9 316 0 4 3 2 12 -4 20 -16 19 -292 19 -308 0z"/>
 <path d="M2277 4664 c-4 -4 -7 -112 -7 -240 0 -220 1 -235 22 -271 40 -72 49 -84 58 -78 5 3 -1 22 -13 43 -21 35 -22 52 -27 291 -5 240 -10 278 -33 255z"/>
 <path d="M4707 4663 c-3 -5 38 -53 92 -107 54 -54 101 -94 104 -89 3 5 -38 53 -92 107 -54 54 -101 94 -104 89z"/>
 <path d="M1320 4521 c-24 -21 -39 -40 -34 -43 5 -4 29 11 53 31 24 21 40 41 35 44 -6 3 -30 -11 -54 -32z"/>
 <path d="M1646 4541 c-10 -11 -13 -22 -8 -25 5 -3 17 3 26 13 10 11 13 22 8 25 -5 3 -17 -3 -26 -13z"/>
 <path d="M1581 4486 c-18 -19 -29 -36 -23 -39 5 -4 23 9 41 27 18 19 29 36 23 39 -5 4 -23 -9 -41 -27z"/>
 <path d="M1221 4436 c-24 -24 -39 -46 -34 -49 6 -4 29 13 52 37 24 24 39 46 34 49 -6 4 -29 -13 -52 -37z"/>
 <path d="M4907 4454 c-3 -3 15 -31 40 -62 67 -82 129 -181 176 -280 22 -48 42 -90 43 -94 1 -5 3 -11 4 -15 1 -5 2 -11 1 -15 0 -4 4 -20 11 -35 6 -15 10 -33 9 -40 -2 -16 16 -26 24 -13 4 6 2 17 -4 24 -6 7 -8 15 -6 18 3 3 0 18 -6 34 -7 16 -13 32 -14 37 -2 4 -3 8 -4 10 -2 1 -5 13 -7 26 -16 88 -241 430 -267 405z"/>
 <path d="M1476 4391 c-21 -21 -34 -41 -29 -44 6 -4 27 11 47 32 21 21 34 41 29 44 -6 4 -27 -11 -47 -32z"/>
 <path d="M1386 4291 c-15 -16 -23 -31 -18 -35 5 -3 21 8 36 23 15 16 23 31 18 35 -5 3 -21 -8 -36 -23z"/>
 <path d="M1061 4276 c-18 -19 -29 -36 -23 -39 5 -4 23 9 41 27 18 19 29 36 23 39 -5 4 -23 -9 -41 -27z"/>
 <path d="M1336 4231 c-10 -11 -13 -22 -8 -25 5 -3 17 3 26 13 10 11 13 22 8 25 -5 3 -17 -3 -26 -13z"/>
 <path d="M979 4178 c-112 -140 -235 -362 -293 -528 -15 -41 -29 -82 -33 -90 -3 -8 -7 -26 -7 -40 -1 -14 -5 -31 -9 -37 -5 -7 -6 -17 -3 -22 3 -5 -1 -14 -10 -21 -8 -7 -12 -20 -9 -27 2 -8 0 -23 -5 -34 -8 -13 -7 -25 1 -40 16 -31 27 -12 33 56 3 33 6 62 7 65 1 3 3 10 4 15 1 6 5 17 8 25 3 8 22 64 41 123 59 178 169 383 287 534 27 34 44 65 39 68 -5 3 -28 -18 -51 -47z"/>
 <path d="M5346 4202 c-3 -5 3 -17 13 -26 11 -10 22 -13 25 -8 3 5 -3 17 -13 26 -11 10 -22 13 -25 8z"/>
 <path d="M1301 4186 c-7 -8 -8 -17 -3 -20 6 -3 15 1 21 8 7 8 8 17 3 20 -6 3 -15 -1 -21 -8z"/>
 <path d="M3856 4192 c-6 -11 45 -95 83 -135 14 -16 43 -37 64 -47 36 -18 38 -18 76 1 43 20 104 87 94 102 -3 5 -20 -6 -37 -26 -77 -88 -150 -73 -226 45 -48 73 -46 72 -54 60z"/>
 <path d="M1226 4078 c-29 -46 -74 -123 -99 -173 -50 -102 -121 -284 -113 -293 3 -3 1 -11 -5 -19 -6 -7 -8 -13 -4 -13 4 0 2 -7 -5 -15 -7 -9 -10 -18 -7 -22 4 -3 2 -12 -3 -19 -6 -6 -12 -27 -14 -45 -2 -19 -7 -42 -11 -51 -10 -25 3 -42 21 -27 10 8 11 15 4 24 -7 9 -6 16 5 25 8 7 12 16 9 22 -3 5 -1 15 6 23 8 9 8 15 0 20 -8 5 -8 10 0 20 6 7 10 17 9 21 -1 5 0 12 1 17 1 4 3 10 5 15 1 4 4 14 8 22 3 8 23 60 43 115 44 121 94 221 167 337 31 48 51 90 46 93 -5 3 -33 -31 -63 -77z"/>
 <path d="M5386 4152 c-3 -5 3 -17 13 -26 11 -10 22 -13 25 -8 3 5 -3 17 -13 26 -11 10 -22 13 -25 8z"/>
 <path d="M3391 4126 c-7 -8 -8 -17 -3 -20 6 -3 15 1 21 8 7 8 8 17 3 20 -6 3 -15 -1 -21 -8z"/>
 <path d="M2596 4111 c-4 -5 -2 -12 3 -15 5 -4 12 -2 15 3 4 5 2 12 -3 15 -5 4 -12 2 -15 -3z"/>
 <path d="M2559 4063 c-31 -33 -79 -54 -110 -46 -13 3 -38 16 -56 29 -37 28 -53 17 -20 -13 40 -35 76 -54 82 -42 4 6 14 8 22 5 8 -3 26 0 41 8 36 19 86 72 74 80 -5 3 -20 -6 -33 -21z"/>
 <path d="M5201 3867 c-9 -11 -8 -17 4 -27 12 -10 16 -9 21 5 9 23 -10 40 -25 22z"/>
 <path d="M5212 3788 c-17 -17 -15 -113 1 -127 21 -17 27 -3 27 65 0 64 -8 82 -28 62z"/>
 <path d="M5199 3576 c-9 -20 -9 -29 1 -41 17 -20 30 -10 30 25 0 39 -17 47 -31 16z"/>
 <path d="M5190 3495 c-9 -11 -10 -18 -1 -29 9 -10 8 -16 -4 -26 -11 -9 -12 -16 -5 -25 8 -9 8 -15 0 -20 -6 -4 -9 -13 -6 -20 2 -7 2 -16 -2 -20 -4 -4 -7 -10 -8 -13 -3 -17 -30 -82 -59 -140 -18 -34 -29 -65 -25 -67 4 -3 12 1 18 8 19 23 74 140 76 161 1 12 6 27 10 34 4 7 4 12 0 12 -3 0 -1 7 6 15 7 9 10 18 7 22 -4 3 -2 12 4 19 6 8 9 20 6 29 -4 8 -2 17 3 20 12 8 13 42 1 49 -5 3 -14 -1 -21 -9z"/>
 <path d="M4300 3425 c-7 -8 -16 -13 -20 -10 -26 16 -171 -145 -175 -194 0 -9 -4 -22 -9 -29 -4 -6 -4 -17 -1 -22 8 -13 27 -2 22 13 -2 6 13 41 33 77 40 70 130 151 161 143 22 -6 32 12 15 26 -10 9 -16 8 -26 -4z"/>
 <path d="M4429 3424 c-9 -11 -8 -15 2 -18 8 -3 30 -9 50 -15 20 -7 47 -24 62 -39 30 -31 66 -107 67 -139 0 -12 4 -24 9 -27 4 -3 6 -16 4 -30 -6 -29 10 -41 27 -21 10 13 10 19 -3 33 -10 11 -13 23 -8 31 11 18 -49 138 -85 172 -16 15 -48 36 -71 47 -36 17 -44 18 -54 6z"/>
 <path d="M954 3365 c-9 -23 10 -40 25 -22 9 11 8 17 -4 27 -12 10 -16 9 -21 -5z"/>
 <path d="M945 3310 c-4 -6 -3 -16 3 -22 6 -6 12 -6 17 2 4 6 3 16 -3 22 -6 6 -12 6 -17 -2z"/>
 <path d="M601 3281 c-15 -28 -14 -86 2 -100 21 -16 27 -3 27 55 0 57 -13 76 -29 45z"/>
 <path d="M1071 3267 c-15 -19 -4 -27 40 -27 44 0 58 14 30 29 -27 15 -56 14 -70 -2z"/>
 <path d="M955 3261 c-7 -12 12 -24 25 -16 11 7 4 25 -10 25 -5 0 -11 -4 -15 -9z"/>
 <path d="M1180 3255 c-10 -12 -9 -16 5 -21 23 -9 40 10 22 25 -11 9 -17 8 -27 -4z"/>
 <path d="M1235 3241 c-6 -11 13 -26 22 -17 3 3 12 1 19 -4 6 -6 29 -13 50 -15 22 -2 41 -5 44 -6 3 -1 10 -3 15 -4 6 -2 13 -4 18 -5 4 -1 10 -3 15 -5 4 -1 14 -5 22 -8 8 -4 69 -24 135 -46 66 -21 150 -51 188 -65 37 -14 67 -23 67 -20 0 4 6 2 13 -4 6 -5 68 -33 137 -61 69 -28 239 -100 378 -160 139 -60 255 -105 258 -100 3 5 -29 25 -72 45 -197 90 -653 282 -684 288 -8 2 -37 13 -65 25 -73 33 -346 123 -353 117 -3 -3 -11 -1 -19 5 -7 6 -13 8 -13 4 0 -4 -6 -2 -14 4 -8 6 -18 11 -22 10 -10 -2 -39 7 -65 21 -10 5 -21 4 -27 -2 -6 -6 -12 -6 -16 1 -9 13 -23 14 -31 2z"/>
 <path d="M4082 3138 c-16 -16 -15 -93 1 -107 21 -16 27 -3 27 55 0 55 -9 71 -28 52z"/>
 <path d="M5029 3094 c-45 -47 -115 -88 -154 -89 -37 -2 -58 -13 -50 -26 8 -12 28 -11 62 3 15 6 34 12 40 14 41 8 164 116 145 127 -5 4 -24 -10 -43 -29z"/>
 <path d="M602 3108 c-15 -15 -15 -58 -2 -93 15 -40 30 -20 30 40 0 56 -9 72 -28 53z"/>
 <path d="M5678 3039 c-40 -21 -91 -80 -93 -109 -1 -10 -7 -25 -14 -34 -10 -12 -11 -20 -2 -29 6 -8 7 -18 3 -23 -5 -5 -19 -38 -33 -72 -13 -35 -39 -81 -57 -102 -29 -35 -36 -38 -78 -36 -50 3 -65 -7 -35 -23 36 -20 70 -12 111 25 39 35 98 142 104 187 2 12 7 29 10 38 4 10 6 23 5 30 -9 56 75 140 143 143 16 1 28 6 28 11 0 17 -55 13 -92 -6z"/>
 <path d="M4655 3001 c-7 -12 12 -24 24 -16 5 3 12 1 16 -5 8 -13 52 -13 60 -1 9 16 -34 34 -50 21 -9 -7 -15 -8 -20 0 -8 13 -22 13 -30 1z"/>
 <path d="M4095 2990 c-3 -5 -3 -15 1 -22 4 -7 9 -23 10 -37 4 -35 85 -199 134 -270 22 -33 60 -74 85 -91 57 -39 205 -110 236 -114 14 -1 31 -6 38 -10 7 -4 15 -5 18 -2 3 3 13 0 21 -6 8 -7 20 -13 26 -13 6 -1 22 -4 36 -9 30 -8 88 10 74 24 -5 4 -40 11 -79 13 -38 3 -72 6 -75 8 -3 1 -9 3 -15 4 -5 1 -19 6 -30 10 -11 4 -47 19 -80 32 -33 13 -90 42 -128 64 -56 33 -77 53 -112 107 -51 80 -97 172 -115 227 -7 22 -16 44 -20 49 -5 5 -6 14 -4 21 7 16 -12 29 -21 15z"/>
 <path d="M609 2964 c-11 -13 -11 -21 3 -44 11 -20 13 -31 5 -39 -7 -7 -6 -16 6 -29 9 -10 14 -22 11 -25 -4 -4 -2 -13 4 -20 7 -8 9 -17 5 -20 -3 -4 -1 -13 5 -20 7 -8 9 -16 6 -19 -9 -10 53 -183 102 -280 59 -118 151 -261 164 -253 5 3 -16 44 -46 90 -66 101 -133 240 -169 350 -14 44 -29 87 -32 95 -3 8 -5 20 -4 27 1 6 -3 14 -8 18 -6 3 -8 12 -5 19 3 8 1 17 -5 20 -6 4 -8 13 -4 21 3 8 2 23 -2 33 -4 9 -7 31 -6 48 3 38 -11 50 -30 28z"/>
 <path d="M5391 2786 c-7 -8 -8 -17 -3 -20 6 -3 15 1 21 8 7 8 8 17 3 20 -6 3 -15 -1 -21 -8z"/>
 <path d="M5351 2736 c-13 -13 -18 -26 -13 -30 5 -3 19 5 31 18 13 13 18 26 13 30 -5 3 -19 -5 -31 -18z"/>
 <path d="M2645 2711 c-3 -6 3 -15 14 -21 12 -6 22 -6 26 -1 3 6 -3 15 -14 21 -12 6 -22 6 -26 1z"/>
 <path d="M5306 2682 c-3 -5 2 -20 12 -33 24 -29 36 -11 13 20 -11 14 -21 19 -25 13z"/>
 <path d="M5105 2525 c-56 -35 -153 -66 -233 -73 -37 -4 -66 -11 -65 -17 3 -16 61 -27 83 -15 11 6 25 8 31 5 5 -4 15 -2 22 3 7 5 30 15 52 22 22 7 66 26 97 42 l58 28 57 -47 c32 -25 83 -57 113 -70 30 -13 62 -28 71 -33 11 -6 23 -4 35 5 21 15 24 13 -56 35 -56 15 -115 49 -173 100 -25 22 -47 40 -49 40 -1 0 -21 -12 -43 -25z"/>
 <path d="M5729 2494 c-29 -30 -153 -94 -185 -94 -29 0 -38 -14 -20 -29 10 -9 20 -9 33 -2 10 6 43 22 74 36 64 29 148 98 132 108 -5 3 -21 -5 -34 -19z"/>
 <path d="M926 2202 c-3 -6 1 -15 8 -21 8 -7 17 -8 20 -3 3 6 -1 15 -8 21 -8 7 -17 8 -20 3z"/>
 <path d="M956 2162 c-3 -5 3 -17 13 -26 11 -10 22 -13 25 -8 3 5 -3 17 -13 26 -11 10 -22 13 -25 8z"/>
 <path d="M997 2113 c-4 -6 11 -27 32 -47 21 -21 41 -34 44 -29 4 6 -11 27 -32 47 -21 21 -41 34 -44 29z"/>
 <path d="M1167 1943 c-4 -6 11 -27 32 -47 21 -21 41 -34 44 -29 4 6 -11 27 -32 47 -21 21 -41 34 -44 29z"/>
 <path d="M1255 1860 c-13 -20 267 -219 462 -329 97 -55 314 -161 335 -165 7 -1 23 -7 35 -14 13 -7 24 -8 28 -3 5 9 -30 34 -45 34 -3 0 -51 22 -106 48 -219 102 -470 253 -627 378 -42 33 -79 56 -82 51z"/>
 <path d="M2146 1341 c-4 -5 -2 -12 3 -15 5 -4 12 -2 15 3 4 5 2 12 -3 15 -5 4 -12 2 -15 -3z"/>
 <path d="M2196 1321 c-4 -5 -2 -12 3 -15 5 -4 12 -2 15 3 4 5 2 12 -3 15 -5 4 -12 2 -15 -3z"/>
 </g>
<g id="layer2" fill="#783127" stroke="none">
 <path d="M3035 5151 c-3 -5 -2 -12 3 -15 12 -7 47 -1 47 9 0 12 -43 16 -50 6z"/>
 <path d="M2816 5121 c-7 -10 28 -43 37 -35 8 8 -11 44 -23 44 -5 0 -11 -4 -14 -9z"/>
 <path d="M2697 5109 c-9 -6 -22 -7 -28 -4 -5 4 -16 1 -24 -5 -8 -6 -19 -9 -25 -5 -6 4 -18 1 -26 -6 -8 -6 -17 -9 -21 -6 -3 4 -12 2 -19 -4 -8 -6 -20 -9 -29 -6 -8 4 -17 2 -21 -4 -3 -6 -12 -8 -20 -5 -7 3 -16 1 -20 -5 -3 -6 -12 -8 -20 -5 -7 3 -16 1 -20 -5 -3 -6 -12 -8 -20 -5 -7 3 -16 1 -20 -5 -3 -6 -12 -8 -19 -5 -7 2 -17 0 -22 -5 -5 -5 -27 -12 -48 -14 -21 -3 -43 -9 -49 -14 -10 -7 -130 -54 -148 -57 -5 -1 -11 -3 -15 -4 -5 -1 -12 -2 -17 -1 -5 1 -17 -6 -27 -15 -10 -9 -30 -16 -43 -16 -14 0 -31 -6 -37 -14 -6 -7 -17 -10 -24 -8 -7 3 -23 -4 -34 -15 -12 -12 -34 -23 -49 -25 -36 -4 -151 -62 -184 -93 -14 -14 -31 -23 -36 -19 -5 3 -17 -3 -27 -14 -10 -11 -21 -17 -26 -15 -4 3 -14 -3 -21 -12 -15 -20 -128 -97 -143 -98 -5 0 -11 -4 -12 -10 -1 -5 -12 -12 -25 -15 -13 -3 -23 -11 -23 -18 0 -7 -2 -11 -5 -10 -11 3 -50 -23 -47 -33 1 -6 -6 -13 -17 -14 -22 -4 -67 -45 -61 -55 3 -4 -2 -13 -10 -20 -8 -7 -15 -9 -15 -4 0 5 -27 -18 -60 -51 -32 -32 -57 -62 -55 -66 6 -8 -20 -31 -27 -24 -7 8 -39 -31 -43 -52 -1 -10 -8 -17 -14 -16 -10 3 -28 -22 -30 -42 -1 -5 -7 -10 -13 -10 -7 0 -13 -8 -13 -18 0 -10 -8 -23 -17 -28 -20 -11 -59 -64 -62 -84 -1 -8 -10 -23 -21 -35 -10 -11 -14 -20 -10 -20 5 0 -2 -11 -15 -25 -12 -13 -24 -32 -25 -42 -3 -27 -28 -83 -37 -83 -11 0 -40 -59 -34 -69 3 -5 0 -14 -8 -20 -7 -6 -14 -22 -14 -35 0 -13 -10 -37 -22 -54 -14 -19 -20 -37 -16 -48 3 -9 -1 -28 -9 -41 -9 -13 -13 -28 -10 -33 3 -5 -1 -21 -10 -34 -9 -14 -14 -33 -11 -43 3 -10 1 -43 -4 -73 -13 -68 -18 -390 -7 -397 5 -3 7 -19 6 -37 -2 -17 0 -37 5 -44 4 -7 5 -26 1 -43 -4 -18 -2 -36 6 -45 6 -8 9 -17 6 -21 -4 -3 -2 -12 5 -20 6 -7 8 -16 4 -20 -3 -3 1 -14 10 -24 9 -10 17 -31 18 -46 1 -15 10 -40 20 -55 10 -15 15 -32 11 -38 -4 -6 1 -23 11 -38 10 -15 17 -30 16 -35 -4 -13 45 -101 66 -120 11 -11 18 -25 15 -33 -3 -7 9 -27 25 -44 17 -16 27 -30 24 -30 -4 0 0 -6 8 -13 8 -7 15 -18 15 -24 0 -7 5 -13 10 -12 6 0 13 -10 16 -23 3 -13 11 -22 17 -20 7 1 12 -6 12 -17 0 -21 23 -45 33 -34 4 3 7 -1 7 -9 0 -21 38 -68 52 -65 7 1 17 -9 24 -23 16 -30 83 -98 116 -114 12 -7 22 -17 21 -23 -3 -14 38 -50 62 -55 11 -2 19 -9 18 -16 -3 -11 22 -29 42 -31 6 -1 10 -5 10 -10 0 -14 94 -83 105 -76 5 3 14 -3 19 -14 12 -22 64 -62 85 -65 8 -1 21 -8 30 -15 9 -7 16 -10 16 -5 0 5 7 -2 16 -14 8 -12 19 -20 23 -17 5 2 16 -4 26 -15 9 -10 23 -16 31 -13 8 3 14 0 14 -6 0 -15 44 -42 75 -45 14 -2 44 -18 66 -36 22 -17 43 -29 46 -26 7 6 60 -20 85 -42 10 -8 29 -16 44 -18 14 -1 34 -10 45 -20 11 -10 28 -18 38 -19 11 -1 27 -7 35 -15 9 -7 19 -10 23 -7 3 4 17 -3 31 -13 13 -11 34 -20 46 -20 11 0 35 -7 51 -16 40 -22 132 -53 138 -48 2 3 17 -1 33 -7 32 -14 39 -16 54 -18 14 -2 52 -79 58 -120 3 -20 6 -116 6 -213 1 -98 5 -180 9 -184 4 -4 1 -14 -6 -22 -6 -8 -13 -36 -14 -61 -2 -44 -6 -78 -17 -163 -2 -20 -7 -42 -11 -48 -11 -18 24 -63 43 -54 9 4 26 8 37 9 57 5 220 79 210 95 -4 6 -27 -1 -56 -15 -51 -27 -186 -62 -196 -52 -3 3 0 36 7 74 6 37 13 103 15 147 3 43 7 81 10 84 3 3 5 82 5 176 0 182 -12 258 -48 319 -11 20 -18 37 -16 40 2 2 39 -8 82 -23 173 -62 426 -109 465 -88 14 7 16 13 8 21 -8 8 -11 208 -11 694 l0 683 37 -20 c21 -11 41 -20 46 -20 4 0 52 -19 105 -41 53 -23 101 -42 107 -43 5 -1 20 -8 33 -14 12 -7 22 -10 22 -7 0 3 11 -2 24 -10 15 -10 26 -12 30 -6 4 5 -3 15 -14 21 -11 6 -20 8 -20 5 0 -3 -11 2 -24 11 -14 8 -27 15 -30 15 -6 0 -112 47 -296 130 -117 53 -138 63 -177 80 -94 42 -140 63 -185 85 -26 14 -50 23 -55 22 -4 -1 -21 6 -36 17 -16 10 -36 19 -45 20 -10 0 -30 9 -45 20 -16 10 -36 19 -45 20 -10 0 -29 9 -44 19 -15 10 -31 15 -36 12 -5 -3 -22 4 -37 16 -15 12 -36 22 -45 23 -10 1 -26 7 -34 14 -9 8 -31 15 -48 17 -18 2 -35 10 -40 16 -4 7 -19 14 -34 15 -14 1 -31 9 -38 18 -6 9 -16 15 -21 13 -6 -1 -22 6 -37 16 -15 10 -31 15 -36 12 -6 -3 -15 1 -22 10 -7 8 -19 13 -26 10 -7 -3 -18 2 -25 10 -7 8 -18 13 -25 10 -7 -3 -18 2 -25 10 -7 8 -18 13 -25 10 -7 -3 -18 2 -25 10 -6 8 -17 13 -23 12 -6 -1 -23 6 -38 16 -16 10 -35 15 -44 12 -9 -4 -29 1 -43 11 -14 10 -36 19 -48 20 -33 3 -176 55 -195 71 -9 8 -25 11 -36 7 -11 -3 -23 -1 -27 5 -3 6 -10 8 -15 5 -5 -3 -11 -1 -15 4 -3 6 -12 8 -19 5 -7 -3 -18 1 -25 9 -7 9 -24 13 -43 11 -17 -2 -37 1 -45 7 -14 13 -50 16 -209 21 -98 3 -101 4 -101 26 0 12 4 25 9 28 5 3 6 14 3 24 -3 11 1 30 10 44 11 16 13 26 5 31 -6 3 -7 11 -4 17 4 6 8 27 10 46 2 19 11 43 20 53 9 10 14 27 11 38 -3 11 2 26 10 32 8 7 12 21 9 32 -3 11 4 32 16 48 11 15 18 34 15 43 -3 8 1 20 9 27 8 6 13 17 12 23 -1 6 6 24 16 39 10 15 20 39 22 52 1 14 14 39 28 56 25 29 30 43 27 63 -1 5 7 15 18 23 11 7 18 20 15 27 -3 7 1 16 9 19 19 7 77 91 77 111 0 9 5 15 12 13 6 -1 14 9 18 23 4 14 12 24 18 23 10 -3 24 15 34 42 1 5 6 9 10 8 8 -3 79 83 73 89 -3 3 6 15 20 28 14 13 25 20 25 16 0 -4 20 9 45 29 24 20 43 41 42 47 -1 6 6 12 16 13 23 4 48 25 42 35 -3 5 5 10 17 12 13 2 23 10 23 18 0 8 9 15 20 15 11 0 20 7 20 15 0 8 8 14 17 12 9 -1 24 8 35 20 26 33 48 48 74 53 12 3 35 17 51 32 15 15 28 23 28 18 0 -5 11 1 23 14 13 12 34 24 47 26 12 2 34 12 47 22 51 36 97 62 105 57 4 -3 29 6 55 19 44 22 73 35 143 65 14 5 41 17 62 26 20 9 41 16 47 16 6 0 19 5 29 11 9 5 64 25 121 43 90 27 105 35 106 54 2 29 -15 43 -38 31z m10 -35 c-3 -3 -12 -4 -19 -1 -8 3 -5 6 6 6 11 1 17 -2 13 -5z m-87 -25 c-62 -23 -136 -35 -108 -19 21 13 117 39 143 39 11 0 -5 -9 -35 -20z"/>
 <path d="M2759 5115 c-1 -3 -2 -8 -3 -12 -1 -5 -5 -13 -9 -20 -4 -6 -3 -14 3 -18 13 -8 32 4 25 15 -3 5 -1 11 5 15 6 4 8 11 5 16 -7 10 -24 12 -26 4z"/>
 <path d="M2785 5091 c-7 -12 12 -24 25 -16 11 7 4 25 -10 25 -5 0 -11 -4 -15 -9z"/>
 <path d="M4506 4811 c-4 -5 -2 -12 3 -15 5 -4 12 -2 15 3 4 5 2 12 -3 15 -5 4 -12 2 -15 -3z"/>
 <path d="M4536 4791 c-4 -5 -2 -12 3 -15 5 -4 12 -2 15 3 4 5 2 12 -3 15 -5 4 -12 2 -15 -3z"/>
 <path d="M4567 4764 c-11 -11 3 -24 25 -24 12 0 18 -3 15 -7 -11 -10 13 -33 35 -33 10 0 17 -4 14 -9 -6 -10 26 -42 46 -45 20 -3 39 -17 34 -25 -5 -8 129 -146 142 -146 4 0 14 -13 22 -30 8 -16 22 -30 30 -30 8 0 14 -8 12 -17 -1 -9 12 -28 30 -43 18 -16 32 -34 30 -41 -1 -7 10 -22 24 -33 15 -12 23 -21 19 -21 -5 0 0 -9 10 -20 10 -11 15 -20 11 -20 -10 0 30 -74 48 -89 9 -7 13 -17 10 -23 -3 -5 2 -21 12 -36 10 -15 16 -27 13 -28 -2 0 2 -8 10 -17 7 -10 10 -17 6 -17 -4 0 -2 -7 5 -15 7 -8 14 -40 16 -71 2 -30 7 -61 11 -67 4 -7 8 -25 9 -42 1 -16 5 -38 9 -47 4 -10 4 -41 0 -70 -3 -29 -6 -79 -6 -110 1 -31 -3 -60 -9 -63 -5 -3 -7 -19 -4 -34 3 -16 1 -32 -5 -35 -5 -4 -8 -13 -4 -21 3 -9 0 -21 -6 -29 -6 -7 -8 -16 -4 -19 3 -4 -1 -15 -9 -24 -17 -20 -51 -114 -43 -121 7 -7 -21 -55 -44 -76 -12 -11 -21 -28 -21 -38 0 -11 -4 -17 -9 -14 -8 5 -47 -30 -53 -49 -2 -5 -7 -9 -11 -7 -5 1 -29 -12 -55 -30 -43 -29 -54 -32 -137 -34 -49 -2 -94 0 -100 4 -5 4 -17 7 -25 7 -11 0 -16 13 -17 50 -4 85 -9 130 -15 140 -8 14 -22 78 -19 89 1 5 -7 18 -18 30 -11 11 -20 26 -20 31 -1 6 -5 10 -10 10 -13 0 -26 14 -26 27 0 6 -8 12 -18 14 -10 1 -27 10 -36 18 -10 9 -25 14 -35 10 -9 -3 -23 -1 -31 6 -10 8 -28 10 -53 5 -20 -4 -46 -8 -57 -9 -11 -1 -33 -11 -49 -21 -16 -11 -36 -20 -44 -21 -19 -3 -60 -44 -64 -64 -2 -8 -11 -21 -20 -28 -9 -7 -15 -19 -12 -26 3 -7 -2 -16 -10 -19 -9 -4 -13 -12 -10 -20 3 -8 -2 -20 -10 -27 -9 -7 -13 -16 -10 -21 3 -5 0 -17 -6 -28 -7 -13 -7 -22 0 -26 5 -3 10 -21 10 -40 0 -19 -5 -37 -10 -40 -7 -4 -6 -13 1 -26 6 -12 8 -23 5 -27 -3 -3 1 -16 9 -28 8 -13 12 -30 9 -39 -4 -8 2 -27 12 -43 10 -15 17 -30 16 -35 -3 -12 35 -82 53 -97 18 -15 49 -70 40 -70 -3 0 -1 -9 5 -20 6 -11 15 -18 21 -15 8 6 13 -8 10 -27 -1 -12 91 -78 101 -72 5 3 25 -9 44 -26 20 -17 42 -29 49 -26 8 3 19 -2 25 -9 7 -8 16 -13 20 -10 10 6 71 -14 90 -30 14 -13 44 -19 65 -15 27 5 111 -3 123 -12 8 -7 17 -7 27 2 10 8 33 11 65 8 28 -3 53 -1 56 3 2 5 20 8 39 7 18 -1 46 7 62 18 15 10 33 17 39 16 6 -1 21 9 34 23 29 31 31 31 69 -1 17 -14 39 -27 48 -28 10 -2 18 -8 18 -15 0 -14 26 -32 37 -25 4 3 27 -9 51 -26 34 -24 49 -29 74 -24 18 3 33 2 37 -5 9 -14 68 -15 82 -1 5 5 31 11 58 14 32 2 54 10 62 21 7 9 17 15 22 11 11 -7 84 43 77 53 -2 5 10 20 29 34 34 27 51 62 35 73 -6 3 -9 102 -9 236 1 211 0 231 -17 244 -24 18 -48 18 -63 -1 -7 -8 -16 -13 -20 -10 -4 3 -13 -2 -20 -10 -7 -8 -16 -13 -20 -10 -12 7 -50 -40 -56 -70 -3 -16 -8 -33 -12 -39 -3 -6 -5 -19 -3 -29 1 -10 -5 -27 -14 -37 -10 -11 -18 -32 -19 -47 -2 -16 -11 -41 -20 -55 -15 -24 -22 -43 -25 -71 -1 -4 -4 -6 -8 -5 -5 2 -25 -10 -45 -25 -35 -27 -38 -28 -60 -13 -12 9 -30 16 -40 16 -22 0 -22 9 -3 34 8 10 12 22 10 26 -5 9 25 37 34 32 3 -1 7 6 9 18 2 11 8 18 13 15 5 -4 12 2 16 12 4 10 19 38 35 62 25 41 29 69 7 56 -13 -9 -12 1118 1 1131 7 7 1 24 -20 52 -17 23 -28 42 -24 42 11 0 -38 55 -49 55 -7 1 -11 7 -9 13 3 16 -177 202 -198 205 -23 4 -41 17 -35 27 5 8 -34 35 -45 32 -3 -1 -5 2 -5 7 0 9 -50 52 -60 51 -20 -1 -25 1 -23 13 2 6 -4 12 -12 12 -17 0 -71 36 -112 73 -16 14 -28 22 -28 17 0 -4 -9 0 -20 10 -11 10 -20 15 -20 10 0 -4 -8 3 -18 14 -9 12 -24 23 -33 24 -8 2 -28 13 -43 25 -16 12 -31 22 -35 23 -32 4 -57 11 -65 19 -11 11 -39 13 -49 4z"/>
 <path d="M3097 4684 c-4 -4 -7 -112 -7 -240 0 -143 -4 -235 -10 -239 -22 -13 80 -169 114 -174 19 -3 109 -4 134 -1 24 3 72 50 72 71 0 9 6 21 13 27 9 8 11 72 7 284 l-5 273 -156 3 c-85 1 -158 -1 -162 -4z"/>
 <path d="M4154 4680 c-5 -5 -75 -11 -154 -12 l-145 -3 -2 -245 c-2 -212 0 -247 14 -262 9 -10 12 -18 7 -18 -5 -1 1 -9 13 -19 12 -10 19 -21 16 -25 -9 -9 58 -77 69 -70 5 3 16 0 24 -7 9 -7 28 -13 44 -13 16 0 35 6 44 13 8 7 20 10 25 7 10 -6 65 55 67 74 1 5 2 12 3 15 6 22 0 560 -7 567 -4 4 -12 4 -18 -2z"/>
 <path d="M2297 4663 c-4 -4 -7 -125 -7 -269 l1 -262 25 -23 c13 -12 24 -30 24 -39 0 -18 35 -54 53 -55 11 -1 19 -4 72 -24 27 -11 64 4 103 42 57 55 57 57 52 357 l-5 275 -156 3 c-85 1 -158 -1 -162 -5z"/>
 <path d="M8068 4573 c-16 -2 -43 -22 -63 -46 l-36 -42 3 -138 3 -137 -35 0 c-48 0 -103 -40 -129 -93 -12 -24 -21 -48 -21 -55 0 -9 72 -154 110 -222 13 -22 23 -53 25 -72 1 -10 8 -24 14 -32 7 -8 10 -20 7 -25 -4 -5 -2 -12 4 -16 19 -12 10 -25 -17 -25 -45 0 -99 -19 -119 -41 -36 -40 -22 -200 19 -226 7 -4 37 -12 67 -19 l55 -11 0 -91 c1 -121 6 -126 124 -130 86 -4 89 -3 121 26 32 28 34 33 38 114 4 82 5 85 32 95 40 15 61 63 62 139 0 86 -20 119 -68 110 -72 -14 -169 34 -192 95 -10 28 -11 45 -3 75 17 65 82 165 146 227 l60 58 0 202 c0 213 -4 232 -48 262 -24 15 -115 26 -159 18z"/>
 <path d="M10244 4560 c-38 -12 -45 -21 -68 -83 -14 -38 -16 -54 -7 -73 6 -13 8 -30 5 -38 -3 -9 5 -26 18 -39 21 -21 37 -25 126 -31 56 -4 117 -13 136 -21 42 -18 77 -64 70 -92 -3 -12 -1 -24 5 -27 6 -4 11 -20 11 -36 0 -16 -5 -32 -11 -36 -6 -3 -8 -16 -5 -27 3 -11 -1 -35 -8 -51 -8 -17 -19 -46 -27 -65 -7 -18 -22 -42 -33 -53 -19 -17 -21 -32 -24 -164 l-3 -144 -194 0 -193 0 -33 43 c-91 118 -144 164 -165 146 -7 -6 -11 -16 -8 -23 3 -7 -18 -36 -47 -64 l-51 -51 39 -20 c54 -29 90 -64 116 -113 19 -38 23 -63 18 -130 0 -9 -14 -29 -31 -44 -22 -21 -26 -31 -18 -41 6 -8 8 -16 5 -19 -10 -11 31 -81 60 -104 22 -17 37 -21 71 -17 90 10 182 83 182 143 l0 24 225 0 c246 0 279 6 311 55 16 24 16 55 10 398 -13 610 -18 701 -42 733 -48 65 -60 69 -242 71 -92 1 -181 -2 -198 -7z"/>
 <path d="M6750 4549 c-30 -12 -70 -48 -70 -63 0 -6 -6 -23 -14 -38 -21 -40 -22 -592 -1 -628 8 -14 18 -34 23 -45 10 -22 35 -36 91 -54 42 -14 688 -15 745 -1 45 10 81 34 110 74 20 26 21 42 24 329 3 297 2 303 -20 347 -16 31 -36 51 -67 67 -44 23 -47 23 -420 22 -225 0 -386 -4 -401 -10z m560 -414 l0 -115 -155 0 -155 0 0 115 0 115 155 0 155 0 0 -115z"/>
 <path d="M8413 4529 c-24 -11 -43 -25 -43 -31 0 -6 -7 -19 -16 -29 -14 -15 -16 -53 -16 -275 l1 -257 37 -34 c21 -18 53 -35 73 -39 20 -3 70 -12 111 -19 64 -12 80 -11 118 2 27 9 58 12 82 8 28 -5 50 -1 86 15 43 20 61 22 177 19 l130 -4 21 28 c20 27 21 39 21 286 0 371 31 345 -415 348 -305 2 -328 1 -367 -18z m257 -224 l0 -35 -50 0 -50 0 0 35 0 35 50 0 50 0 0 -35z m290 0 c0 -35 0 -35 -45 -35 -45 0 -45 0 -45 35 0 35 0 35 45 35 45 0 45 0 45 -35z m-290 -220 l0 -35 -50 0 -50 0 0 35 0 35 50 0 50 0 0 -35z m290 0 c0 -35 0 -35 -45 -35 -45 0 -45 0 -45 35 0 35 0 35 45 35 45 0 45 0 45 -35z"/>
 <path d="M9465 4543 c-34 -9 -106 -64 -115 -88 -5 -13 -14 -26 -19 -30 -6 -3 -11 -13 -11 -22 0 -25 41 -104 56 -110 8 -3 14 -11 14 -18 0 -8 11 -22 25 -33 14 -11 25 -25 25 -31 0 -6 9 -16 20 -23 11 -7 20 -18 20 -25 0 -7 9 -18 20 -25 11 -7 20 -18 20 -25 0 -7 9 -18 20 -25 11 -7 20 -19 20 -26 0 -7 7 -15 15 -18 8 -4 15 -12 15 -19 0 -8 12 -23 26 -34 55 -43 165 -15 224 57 35 42 38 82 13 130 -31 55 -144 203 -212 275 -80 85 -118 104 -176 90z"/>
 <path d="M6446 4283 c-33 -9 -79 -38 -90 -58 -6 -10 -19 -27 -28 -37 -10 -10 -19 -26 -19 -35 -2 -24 -3 -33 -13 -66 -7 -23 -1 -43 28 -103 21 -41 40 -74 45 -74 11 0 91 -79 91 -90 0 -6 9 -15 20 -22 11 -7 20 -17 20 -23 0 -5 12 -21 25 -34 14 -13 25 -29 25 -36 0 -7 7 -18 15 -25 8 -7 15 -20 15 -30 0 -9 9 -29 20 -43 11 -14 20 -34 20 -45 0 -17 -10 -20 -84 -25 -105 -7 -142 -25 -167 -80 -20 -46 -26 -142 -8 -152 6 -4 8 -13 5 -20 -7 -18 20 -52 57 -73 29 -15 81 -17 577 -20 591 -4 628 -1 673 46 56 59 56 201 -1 255 -44 41 -88 47 -369 47 l-262 0 -21 58 c-11 31 -28 63 -37 70 -10 7 -47 12 -89 12 -91 0 -172 15 -204 38 -14 10 -36 40 -49 66 -22 45 -25 62 -28 230 -2 99 -6 191 -9 203 -9 44 -101 82 -158 66z"/>
 <path d="M9856 4281 c-5 -8 24 -88 57 -159 8 -16 7 -26 -1 -34 -7 -7 -12 -18 -12 -24 0 -15 -52 -69 -75 -77 -22 -9 -19 -30 9 -59 12 -14 26 -33 29 -42 4 -9 11 -16 17 -16 5 0 10 -7 10 -15 0 -8 9 -20 20 -27 11 -7 20 -18 20 -25 0 -7 9 -18 20 -25 11 -7 20 -19 20 -26 0 -7 7 -15 15 -18 8 -4 15 -13 15 -20 0 -8 7 -17 15 -20 8 -4 15 -12 15 -18 0 -18 40 -52 76 -64 27 -8 40 -6 81 12 54 25 113 86 113 117 0 12 -18 31 -47 52 -86 58 -103 80 -103 131 0 42 18 76 41 76 11 0 11 0 -2 -39 -9 -25 -8 -38 5 -64 16 -34 65 -72 106 -82 77 -18 191 158 194 300 1 71 -19 110 -67 130 -19 8 -135 20 -282 29 -292 19 -282 19 -289 7z"/>
 <path d="M8218 3986 c-20 -18 -42 -43 -48 -57 -11 -27 -26 -52 -52 -88 -10 -13 -15 -28 -12 -33 3 -5 0 -15 -6 -23 -9 -11 -7 -21 9 -44 49 -69 122 -92 175 -57 34 22 116 133 116 156 0 10 -15 27 -34 38 -24 14 -39 34 -51 68 -32 86 -41 90 -97 40z"/>
 <path d="M9565 3937 c-11 -7 -33 -21 -50 -32 -16 -11 -42 -26 -56 -34 -54 -27 -123 -87 -132 -114 -9 -29 -8 -33 31 -116 22 -44 77 -81 123 -81 99 0 311 141 325 216 8 42 -16 112 -49 141 -27 25 -160 39 -192 20z"/>
 <path d="M8691 3832 c-63 -31 -100 -141 -55 -159 8 -3 14 -10 14 -17 0 -6 12 -22 25 -35 14 -13 25 -31 25 -41 0 -9 8 -28 19 -41 35 -45 35 -66 1 -98 -17 -15 -37 -39 -44 -52 -16 -32 -12 -118 7 -155 27 -53 52 -59 246 -59 197 0 226 8 257 68 23 43 30 227 15 372 -13 132 -38 191 -91 217 -44 23 -188 25 -228 4 -41 -22 -66 -76 -60 -131 7 -56 29 -83 77 -90 81 -13 76 -7 79 -90 3 -74 3 -75 -23 -75 -23 0 -25 4 -25 44 0 52 -27 91 -69 99 -45 9 -62 45 -70 143 -5 68 -11 89 -26 100 -24 18 -33 18 -74 -4z"/>
 <path d="M8447 3823 c-9 -11 -17 -25 -17 -31 0 -6 -18 -35 -40 -64 -43 -57 -44 -63 -31 -188 5 -41 4 -79 0 -85 -5 -5 -9 -19 -9 -31 0 -13 -12 -32 -26 -43 -45 -35 -55 -64 -34 -98 15 -25 38 -36 156 -75 175 -58 189 -61 203 -44 8 10 7 22 -4 49 -8 20 -15 56 -15 80 0 53 -14 68 -93 97 -31 12 -62 30 -67 40 -24 45 -2 160 30 160 21 0 27 -15 10 -25 -5 -3 -7 -12 -4 -19 3 -8 1 -17 -5 -21 -37 -22 17 -98 86 -121 38 -13 38 -13 75 29 20 23 37 51 38 63 0 11 -25 56 -55 100 -59 86 -73 127 -57 174 10 27 8 32 -14 46 -39 26 -106 30 -127 7z"/>
 <path d="M9715 3583 c-11 -3 -41 -20 -68 -39 -26 -19 -50 -34 -54 -34 -3 0 -21 -11 -39 -25 -18 -14 -37 -25 -43 -25 -5 0 -22 -10 -38 -22 -15 -13 -37 -28 -48 -34 -11 -6 -28 -27 -38 -46 -18 -32 -18 -37 -2 -69 57 -122 82 -144 151 -136 78 8 282 141 324 210 27 44 25 75 -9 128 -48 74 -90 103 -136 92z"/>
 <path d="M10527 2494 c-4 -4 -7 -20 -7 -36 l0 -28 -302 -2 -303 -3 0 -305 0 -305 70 0 70 0 3 238 2 237 80 0 80 0 2 -317 3 -318 65 0 65 0 3 318 2 317 80 0 80 0 2 -237 3 -238 65 0 65 0 0 340 0 340 -60 3 c-34 2 -64 0 -68 -4z"/>
 <path d="M6360 2471 c-37 -14 -45 -21 -44 -41 3 -50 15 -104 25 -116 6 -7 12 -25 14 -41 2 -15 5 -30 6 -33 1 -3 3 -9 4 -15 16 -110 23 -118 83 -98 26 9 52 20 58 24 8 7 -1 54 -32 164 -23 85 -46 160 -49 165 -8 12 -9 12 -65 -9z"/>
 <path d="M6760 2465 c-6 -15 -8 -36 -5 -45 3 -10 1 -21 -5 -25 -7 -4 -7 -12 0 -24 8 -15 25 -19 95 -23 46 -2 87 -7 90 -9 8 -8 8 -33 7 -281 l-2 -238 -196 0 c-188 0 -196 -1 -201 -20 -5 -19 -9 -17 -44 21 l-38 41 -43 -30 c-24 -17 -55 -44 -70 -60 -26 -28 -27 -31 -13 -59 8 -16 23 -37 33 -46 18 -16 23 -14 93 39 l74 55 5 -33 5 -33 290 0 290 0 0 60 c0 54 -2 60 -22 63 -22 3 -22 4 -25 287 -3 268 -4 285 -24 311 -43 58 -65 67 -178 72 l-106 5 -10 -28z"/>
 <path d="M7365 2478 c-2 -7 -6 -38 -7 -69 l-3 -56 -90 28 c-49 15 -93 25 -98 20 -4 -4 -9 -28 -10 -52 -2 -24 -7 -50 -11 -58 -13 -20 4 -30 110 -60 l99 -28 3 -106 3 -106 -93 -3 -93 -3 0 -60 0 -60 92 -3 92 -3 3 -97 3 -97 70 0 70 0 0 410 0 410 -68 3 c-48 2 -69 -1 -72 -10z"/>
 <path d="M9357 2484 c-4 -4 -7 -63 -7 -130 l0 -124 -167 -2 -168 -3 0 -60 0 -60 102 -5 103 -5 -13 -25 c-7 -14 -25 -38 -40 -54 -15 -16 -27 -35 -27 -41 0 -7 -7 -15 -15 -19 -8 -3 -15 -10 -15 -17 0 -6 -10 -19 -22 -29 -26 -21 -18 -36 38 -71 30 -18 37 -19 51 -7 22 18 153 181 153 190 0 4 -24 23 -52 43 l-53 35 63 0 62 0 0 -145 0 -144 -147 -3 -148 -3 0 -60 0 -60 375 0 375 0 0 60 0 60 -49 3 -49 3 52 35 c29 20 51 39 49 44 -6 18 -170 200 -182 202 -6 1 41 4 104 7 l115 6 0 60 0 60 -172 3 -172 2 -3 128 -3 127 -65 3 c-36 2 -69 0 -73 -4z m243 -391 c-8 -3 -30 -20 -48 -38 l-32 -32 45 -42 c25 -23 45 -46 45 -51 0 -5 9 -15 20 -22 11 -7 20 -17 20 -21 0 -5 12 -24 26 -43 l26 -34 -101 0 -101 0 0 145 0 145 58 -1 c31 0 50 -3 42 -6z"/>
 <path d="M7663 2454 c-20 -10 -40 -33 -53 -58 -19 -41 -20 -58 -18 -387 l3 -344 65 0 65 0 3 118 c1 64 6 117 10 117 4 0 23 -13 42 -30 19 -16 38 -29 41 -30 4 0 24 -16 45 -36 l39 -35 47 53 c57 64 62 55 -103 168 l-119 81 0 118 c0 136 7 154 60 149 43 -4 63 -40 64 -115 1 -70 13 -81 73 -65 26 7 52 17 58 22 15 12 -1 164 -22 208 -28 59 -66 77 -173 80 -72 2 -103 -1 -127 -14z"/>
 <path d="M6575 2318 c-3 -8 -4 -110 -3 -228 l3 -215 150 0 150 0 0 200 0 200 -97 3 c-91 3 -97 4 -100 25 -3 19 -10 22 -51 25 -32 2 -49 -1 -52 -10z m185 -243 l0 -85 -40 0 -40 0 0 85 0 85 40 0 40 0 0 -85z"/>
 <path d="M8404 2291 c-43 -32 -86 -85 -89 -110 -1 -9 -5 -24 -10 -35 -5 -11 -4 -26 4 -38 6 -10 9 -23 6 -28 -9 -15 21 -64 59 -98 125 -109 316 -19 316 148 0 59 -15 92 -62 137 -65 63 -157 73 -224 24z"/>
 <path d="M6405 2071 c-22 -23 -59 -58 -83 -78 l-43 -38 43 -42 44 -41 79 65 c44 35 81 69 83 74 2 5 -16 29 -40 55 l-44 46 -39 -41z"/>
 </g>
<g id="layer3" fill="#883437" stroke="none">
 <path d="M3030 5158 c-13 -5 -29 -7 -36 -4 -7 3 -39 0 -71 -5 -32 -6 -80 -13 -108 -15 -27 -3 -61 -12 -73 -20 -14 -9 -34 -13 -47 -10 -13 3 -27 1 -30 -4 -4 -6 -15 -8 -25 -5 -10 3 -21 1 -24 -4 -4 -6 -19 -8 -34 -7 -37 5 -75 -11 -66 -26 5 -9 2 -8 -9 1 -21 16 -29 10 -33 -24 -2 -15 4 -29 14 -35 9 -5 15 -10 12 -10 -3 -1 -18 -3 -34 -5 -15 -2 -36 -10 -45 -18 -9 -8 -21 -12 -28 -10 -15 5 -26 -14 -13 -22 5 -3 16 -3 23 2 6 4 17 8 22 9 6 1 24 8 40 15 17 6 35 13 42 15 40 8 121 39 135 51 9 8 21 13 25 10 8 -5 246 52 268 64 6 3 25 6 44 8 19 1 39 5 45 9 6 4 20 8 31 9 41 4 87 13 96 19 34 20 -70 31 -121 12z"/>
 <path d="M2436 5051 c-4 -6 -13 -8 -20 -5 -8 3 -17 1 -20 -5 -4 -6 -13 -8 -20 -5 -8 3 -17 0 -21 -5 -3 -6 -10 -9 -15 -6 -15 9 -64 -15 -53 -26 6 -6 19 -6 39 2 16 7 33 11 38 10 4 -1 14 3 20 9 7 5 16 7 19 4 3 -3 12 -2 19 2 7 5 18 9 23 9 14 0 19 19 7 23 -6 2 -13 -1 -16 -7z"/>
 <path d="M2155 4974 c-38 -13 -77 -27 -85 -30 -8 -3 -15 -4 -15 -3 0 1 -11 -3 -24 -10 -17 -9 -20 -16 -12 -24 7 -7 16 -6 29 6 10 9 21 15 24 12 7 -8 173 51 171 61 -3 15 -16 13 -88 -12z"/>
 <path d="M2321 4927 c-6 -8 -8 -17 -5 -20 10 -9 45 13 39 24 -9 13 -21 11 -34 -4z"/>
 <path d="M2255 4901 c-7 -12 12 -24 25 -16 11 7 4 25 -10 25 -5 0 -11 -4 -15 -9z"/>
 <path d="M1935 4891 c-7 -12 12 -24 25 -16 11 7 4 25 -10 25 -5 0 -11 -4 -15 -9z"/>
 <path d="M1855 4857 c-12 -10 -14 -16 -7 -21 15 -9 54 12 47 25 -8 12 -18 11 -40 -4z"/>
 <path d="M2135 4848 c-49 -26 -65 -40 -60 -48 4 -6 28 1 56 15 27 14 47 30 44 35 -8 12 -15 12 -40 -2z"/>
 <path d="M4486 4833 c-12 -12 -6 -20 37 -50 23 -16 48 -28 56 -25 8 2 11 0 8 -6 -4 -5 0 -15 8 -22 14 -11 19 -7 16 13 -1 4 8 3 18 -3 23 -12 37 2 18 18 -25 20 -155 81 -161 75z"/>
 <path d="M1979 4762 c-13 -12 -18 -21 -12 -25 6 -4 21 1 34 11 13 12 18 21 12 25 -6 4 -21 -1 -34 -11z"/>
 <path d="M1661 4756 c-7 -8 -8 -17 -3 -20 6 -3 15 1 21 8 7 8 8 17 3 20 -6 3 -15 -1 -21 -8z"/>
 <path d="M1921 4727 c-6 -8 -8 -17 -5 -20 10 -9 45 13 39 24 -9 13 -21 11 -34 -4z"/>
 <path d="M1585 4716 c-14 -10 -15 -15 -6 -21 8 -4 19 -1 28 8 20 19 1 30 -22 13z"/>
 <path d="M4636 4712 c-3 -6 1 -15 8 -21 8 -7 17 -8 20 -3 3 6 -1 15 -8 21 -8 7 -17 8 -20 3z"/>
 <path d="M4716 4711 c-9 -15 23 -36 35 -24 8 8 5 14 -9 22 -12 6 -23 7 -26 2z"/>
 <path d="M1515 4672 c-82 -55 -105 -74 -100 -83 4 -5 40 14 81 42 41 27 72 54 69 59 -4 6 -7 10 -8 9 -1 0 -20 -13 -42 -27z"/>
 <path d="M1827 4669 c-38 -29 -24 -42 18 -18 19 12 32 25 29 30 -8 13 -16 11 -47 -12z"/>
 <path d="M3407 4683 c-4 -4 -7 -130 -7 -281 1 -187 -2 -278 -10 -287 -7 -8 -7 -15 -1 -19 5 -3 19 6 30 20 21 26 21 36 19 297 -3 257 -7 295 -31 270z"/>
 <path d="M3847 4684 c-4 -4 -7 -117 -7 -251 0 -203 3 -249 16 -275 11 -21 19 -27 26 -20 8 8 8 15 -1 25 -8 11 -11 86 -11 268 1 231 -3 273 -23 253z"/>
 <path d="M4166 4682 c-9 -16 -6 -581 4 -587 24 -15 30 45 30 303 0 220 -3 272 -14 281 -8 7 -17 8 -20 3z"/>
 <path d="M4785 4670 c-8 -13 55 -54 66 -43 7 7 -2 17 -25 31 -20 12 -38 17 -41 12z"/>
 <path d="M2606 4663 c-4 -4 -6 -130 -6 -280 1 -149 -1 -276 -4 -282 -10 -15 10 -22 22 -8 6 6 10 14 11 17 0 3 2 12 6 20 3 9 4 132 3 274 -3 247 -7 283 -32 259z"/>
 <path d="M4706 4652 c-3 -5 3 -17 13 -26 11 -10 22 -13 25 -8 3 5 -3 17 -13 26 -11 10 -22 13 -25 8z"/>
 <path d="M4865 4621 c-3 -6 21 -28 54 -50 33 -23 62 -37 66 -32 3 6 -21 28 -54 50 -33 23 -62 37 -66 32z"/>
 <path d="M1741 4606 c-7 -8 -8 -17 -3 -20 6 -3 15 1 21 8 7 8 8 17 3 20 -6 3 -15 -1 -21 -8z"/>
 <path d="M1381 4576 c-7 -8 -8 -17 -3 -20 6 -3 15 1 21 8 7 8 8 17 3 20 -6 3 -15 -1 -21 -8z"/>
 <path d="M1701 4576 c-7 -8 -8 -17 -3 -20 6 -3 15 1 21 8 7 8 8 17 3 20 -6 3 -15 -1 -21 -8z"/>
 <path d="M1341 4546 c-7 -8 -8 -17 -3 -20 6 -3 15 1 21 8 7 8 8 17 3 20 -6 3 -15 -1 -21 -8z"/>
 <path d="M1661 4546 c-7 -8 -8 -17 -3 -20 6 -3 15 1 21 8 7 8 8 17 3 20 -6 3 -15 -1 -21 -8z"/>
 <path d="M8000 4535 c-16 -17 -20 -29 -14 -35 7 -7 18 0 32 19 27 37 13 49 -18 16z"/>
 <path d="M4996 4532 c-3 -6 1 -15 8 -21 8 -7 17 -8 20 -3 3 6 -1 15 -8 21 -8 7 -17 8 -20 3z"/>
 <path d="M8405 4526 c-11 -8 -14 -16 -8 -19 6 -4 18 0 28 7 11 8 14 16 8 19 -6 4 -18 0 -28 -7z"/>
 <path d="M10179 4506 c-9 -20 -10 -29 -1 -38 8 -8 14 -4 22 17 15 39 -4 58 -21 21z"/>
 <path d="M1291 4506 c-7 -8 -8 -17 -3 -20 6 -3 15 1 21 8 7 8 8 17 3 20 -6 3 -15 -1 -21 -8z"/>
 <path d="M1601 4496 c-7 -8 -8 -17 -3 -20 6 -3 15 1 21 8 7 8 8 17 3 20 -6 3 -15 -1 -21 -8z"/>
 <path d="M8361 4492 c-13 -25 2 -38 19 -16 9 10 10 18 3 25 -8 8 -14 5 -22 -9z"/>
 <path d="M4866 4492 c-3 -5 3 -17 13 -26 11 -10 22 -13 25 -8 3 5 -3 17 -13 26 -11 10 -22 13 -25 8z"/>
 <path d="M6667 4472 c-15 -36 -16 -92 -2 -92 6 0 10 10 11 23 0 12 6 35 13 51 8 20 8 33 2 39 -7 7 -15 0 -24 -21z"/>
 <path d="M5076 4472 c-3 -6 1 -15 8 -21 8 -7 17 -8 20 -3 3 6 -1 15 -8 21 -8 7 -17 8 -20 3z"/>
 <path d="M9341 4452 c-13 -25 2 -38 19 -16 9 10 10 18 3 25 -8 8 -14 5 -22 -9z"/>
 <path d="M1206 4431 c-10 -11 -13 -22 -8 -25 5 -3 17 3 26 13 10 11 13 22 8 25 -5 3 -17 -3 -26 -13z"/>
 <path d="M5126 4432 c-3 -5 3 -17 13 -26 11 -10 22 -13 25 -8 3 5 -3 17 -13 26 -11 10 -22 13 -25 8z"/>
 <path d="M4926 4422 c-3 -6 1 -15 8 -21 8 -7 17 -8 20 -3 3 6 -1 15 -8 21 -8 7 -17 8 -20 3z"/>
 <path d="M1486 4391 c-15 -16 -23 -31 -18 -35 5 -3 21 8 36 23 15 16 23 31 18 35 -5 3 -21 -8 -36 -23z"/>
 <path d="M8335 4389 c-10 -26 -1 -399 10 -402 14 -3 19 393 6 406 -7 7 -12 5 -16 -4z"/>
 <path d="M10175 4390 c-4 -6 -3 -16 3 -22 6 -6 12 -6 17 2 4 6 3 16 -3 22 -6 6 -12 6 -17 -2z"/>
 <path d="M9328 4374 c-10 -10 21 -66 32 -59 6 4 10 10 10 14 0 15 -35 53 -42 45z"/>
 <path d="M8659 4356 c0 -3 0 -26 0 -51 0 -61 -1 -59 16 -45 8 7 15 27 15 45 0 18 -7 38 -15 45 -8 7 -15 10 -16 6z"/>
 <path d="M4986 4342 c-3 -6 1 -15 8 -21 8 -7 17 -8 20 -3 3 6 -1 15 -8 21 -8 7 -17 8 -20 3z"/>
 <path d="M10326 4311 c-4 -5 -2 -12 3 -15 5 -4 12 -2 15 3 4 5 2 12 -3 15 -5 4 -12 2 -15 -3z"/>
 <path d="M1066 4291 c-10 -11 -13 -22 -8 -25 5 -3 17 3 26 13 10 11 13 22 8 25 -5 3 -17 -3 -26 -13z"/>
 <path d="M9376 4302 c-3 -6 1 -15 8 -21 8 -7 17 -8 20 -3 3 6 -1 15 -8 21 -8 7 -17 8 -20 3z"/>
 <path d="M10416 4301 c-4 -5 -2 -12 3 -15 5 -4 12 -2 15 3 4 5 2 12 -3 15 -5 4 -12 2 -15 -3z"/>
 <path d="M1381 4276 c-7 -8 -8 -17 -3 -20 6 -3 15 1 21 8 7 8 8 17 3 20 -6 3 -15 -1 -21 -8z"/>
 <path d="M6446 4281 c-4 -5 -2 -12 3 -15 5 -4 12 -2 15 3 4 5 2 12 -3 15 -5 4 -12 2 -15 -3z"/>
 <path d="M6396 4261 c-4 -5 -2 -12 3 -15 5 -4 12 -2 15 3 4 5 2 12 -3 15 -5 4 -12 2 -15 -3z"/>
 <path d="M9856 4262 c-9 -15 12 -54 25 -47 12 8 11 18 -4 40 -10 12 -16 14 -21 7z"/>
 <path d="M5047 4254 c-3 -4 -2 -16 4 -26 8 -15 14 -17 22 -9 8 8 7 15 -4 26 -8 9 -18 13 -22 9z"/>
 <path d="M9426 4242 c-3 -6 1 -15 8 -21 8 -7 17 -8 20 -3 3 6 -1 15 -8 21 -8 7 -17 8 -20 3z"/>
 <path d="M1336 4221 c-10 -11 -13 -22 -8 -25 5 -3 17 3 26 13 10 11 13 22 8 25 -5 3 -17 -3 -26 -13z"/>
 <path d="M7971 4222 c-13 -25 2 -38 19 -16 9 10 10 18 3 25 -8 8 -14 5 -22 -9z"/>
 <path d="M1001 4216 c-7 -8 -8 -17 -3 -20 6 -3 15 1 21 8 7 8 8 17 3 20 -6 3 -15 -1 -21 -8z"/>
 <path d="M6341 4212 c-13 -25 2 -38 19 -16 9 10 10 18 3 25 -8 8 -14 5 -22 -9z"/>
 <path d="M10517 4224 c-3 -4 -2 -16 4 -26 8 -15 14 -17 22 -9 8 8 7 15 -4 26 -8 9 -18 13 -22 9z"/>
 <path d="M5356 4202 c-3 -6 1 -15 8 -21 8 -7 17 -8 20 -3 3 6 -1 15 -8 21 -8 7 -17 8 -20 3z"/>
 <path d="M9466 4192 c-3 -6 1 -15 8 -21 8 -7 17 -8 20 -3 3 6 -1 15 -8 21 -8 7 -17 8 -20 3z"/>
 <path d="M1301 4176 c-7 -8 -8 -17 -3 -20 6 -3 15 1 21 8 7 8 8 17 3 20 -6 3 -15 -1 -21 -8z"/>
 <path d="M961 4166 c-7 -8 -8 -17 -3 -20 6 -3 15 1 21 8 7 8 8 17 3 20 -6 3 -15 -1 -21 -8z"/>
 <path d="M2285 4170 c-4 -6 -3 -16 3 -22 6 -6 12 -6 17 2 4 6 3 16 -3 22 -6 6 -12 6 -17 -2z"/>
 <path d="M10535 4147 c-9 -22 -2 -62 10 -60 6 1 11 14 13 29 4 32 -14 56 -23 31z"/>
 <path d="M5107 4144 c-3 -4 -2 -16 4 -26 8 -15 14 -17 22 -9 8 8 7 15 -4 26 -8 9 -18 13 -22 9z"/>
 <path d="M7806 4122 c-20 -39 -3 -52 20 -17 12 18 14 29 6 37 -7 7 -15 1 -26 -20z"/>
 <path d="M9506 4142 c-3 -6 1 -15 8 -21 8 -7 17 -8 20 -3 3 6 -1 15 -8 21 -8 7 -17 8 -20 3z"/>
 <path d="M931 4126 c-7 -8 -8 -17 -3 -20 6 -3 15 1 21 8 7 8 8 17 3 20 -6 3 -15 -1 -21 -8z"/>
 <path d="M6305 4130 c-4 -6 -3 -16 3 -22 6 -6 12 -6 17 2 4 6 3 16 -3 22 -6 6 -12 6 -17 -2z"/>
 <path d="M8659 4136 c0 -3 0 -26 0 -51 0 -61 -1 -59 16 -45 8 7 15 27 15 45 0 18 -7 38 -15 45 -8 7 -15 10 -16 6z"/>
 <path d="M2307 4124 c-3 -6 4 -23 17 -39 13 -15 25 -24 29 -19 3 6 -4 23 -17 39 -13 15 -25 24 -29 19z"/>
 <path d="M5417 4124 c-3 -4 1 -16 9 -29 22 -34 22 -1237 -1 -1271 -8 -13 -11 -25 -6 -29 10 -6 52 47 55 70 1 8 10 23 19 33 24 27 58 120 46 128 -6 3 -9 189 -9 475 1 437 0 472 -16 497 -10 15 -27 43 -37 63 -20 41 -50 72 -60 63z"/>
 <path d="M9914 4116 c-4 -10 -2 -22 4 -28 8 -8 13 -7 18 6 4 10 2 22 -4 28 -8 8 -13 7 -18 -6z"/>
 <path d="M9546 4092 c-8 -14 46 -84 57 -73 12 12 -10 44 -24 35 -5 -3 -6 1 -3 9 6 16 -21 43 -30 29z"/>
 <path d="M5137 4073 c-2 -5 2 -23 10 -42 17 -41 40 -30 24 11 -11 28 -27 43 -34 31z"/>
 <path d="M1221 4056 c-7 -8 -8 -17 -3 -20 6 -3 15 1 21 8 7 8 8 17 3 20 -6 3 -15 -1 -21 -8z"/>
 <path d="M9891 4052 c-13 -25 2 -38 19 -16 9 10 10 18 3 25 -8 8 -14 5 -22 -9z"/>
 <path d="M10521 4041 c-6 -11 -12 -28 -14 -38 -2 -10 -15 -41 -30 -70 -15 -29 -23 -54 -18 -57 5 -3 13 0 19 7 19 23 43 79 38 85 -3 3 0 12 8 21 19 22 29 58 17 65 -6 4 -15 -2 -20 -13z"/>
 <path d="M3196 4041 c-9 -15 23 -36 35 -24 8 8 5 14 -9 22 -12 6 -23 7 -26 2z"/>
 <path d="M3305 4036 c-14 -10 -15 -15 -6 -21 8 -4 19 -1 28 8 20 19 1 30 -22 13z"/>
 <path d="M3976 4031 c-4 -5 -2 -12 3 -15 5 -4 12 -2 15 3 4 5 2 12 -3 15 -5 4 -12 2 -15 -3z"/>
 <path d="M4086 4031 c-4 -5 -2 -12 3 -15 5 -4 12 -2 15 3 4 5 2 12 -3 15 -5 4 -12 2 -15 -3z"/>
 <path d="M6304 4027 c-6 -16 8 -50 34 -79 27 -31 30 -9 6 38 -29 58 -32 61 -40 41z"/>
 <path d="M851 4012 c-13 -25 2 -38 19 -16 9 10 10 18 3 25 -8 8 -14 5 -22 -9z"/>
 <path d="M2396 4021 c-7 -11 22 -36 31 -28 3 4 12 2 19 -4 16 -13 48 -4 39 11 -4 6 -14 10 -23 8 -10 -1 -27 3 -39 10 -12 7 -24 8 -27 3z"/>
 <path d="M7807 4024 c-3 -4 -2 -16 4 -26 8 -15 14 -17 22 -9 8 8 7 15 -4 26 -8 9 -18 13 -22 9z"/>
 <path d="M1191 4006 c-7 -8 -8 -17 -3 -20 6 -3 15 1 21 8 7 8 8 17 3 20 -6 3 -15 -1 -21 -8z"/>
 <path d="M8216 3991 c-15 -16 -23 -31 -18 -35 5 -3 21 8 36 23 15 16 23 31 18 35 -5 3 -21 -8 -36 -23z"/>
 <path d="M10186 4012 c-3 -6 1 -15 8 -21 8 -7 17 -8 20 -3 3 6 -1 15 -8 21 -8 7 -17 8 -20 3z"/>
 <path d="M9841 3996 c-7 -8 -8 -17 -3 -20 6 -3 15 1 21 8 7 8 8 17 3 20 -6 3 -15 -1 -21 -8z"/>
 <path d="M821 3962 c-13 -25 2 -38 19 -16 9 10 10 18 3 25 -8 8 -14 5 -22 -9z"/>
 <path d="M5175 3969 c-4 -6 -3 -15 3 -21 6 -6 8 -16 6 -23 -3 -7 -1 -16 5 -19 14 -9 25 14 13 26 -6 6 -8 16 -6 23 7 17 -12 29 -21 14z"/>
 <path d="M8161 3922 c-13 -25 2 -38 19 -16 9 10 10 18 3 25 -8 8 -14 5 -22 -9z"/>
 <path d="M8356 3932 c-3 -5 8 -21 23 -36 16 -15 31 -23 35 -18 3 5 -8 21 -23 36 -16 15 -31 23 -35 18z"/>
 <path d="M9556 3931 c-4 -5 -2 -12 3 -15 5 -4 12 -2 15 3 4 5 2 12 -3 15 -5 4 -12 2 -15 -3z"/>
 <path d="M1134 3905 c-12 -18 -14 -29 -6 -37 7 -7 15 -1 26 20 20 39 3 52 -20 17z"/>
 <path d="M9846 3921 c-8 -12 43 -73 55 -65 6 3 5 11 -2 20 -6 7 -15 11 -20 8 -5 -3 -6 1 -3 9 6 17 -21 43 -30 28z"/>
 <path d="M10187 3914 c-3 -4 -2 -16 4 -26 8 -15 14 -17 22 -9 8 8 7 15 -4 26 -8 9 -18 13 -22 9z"/>
 <path d="M6396 3902 c-3 -6 1 -15 8 -21 8 -7 17 -8 20 -3 3 6 -1 15 -8 21 -8 7 -17 8 -20 3z"/>
 <path d="M770 3868 c-23 -37 -24 -44 -10 -53 5 -3 18 12 30 34 25 50 9 65 -20 19z"/>
 <path d="M6655 3890 c-4 -6 -3 -16 3 -22 6 -6 12 -6 17 2 4 6 3 16 -3 22 -6 6 -12 6 -17 -2z"/>
 <path d="M9481 3886 c-7 -8 -8 -17 -3 -20 6 -3 15 1 21 8 7 8 8 17 3 20 -6 3 -15 -1 -21 -8z"/>
 <path d="M8131 3872 c-13 -25 2 -38 19 -16 9 10 10 18 3 25 -8 8 -14 5 -22 -9z"/>
 <path d="M6446 3852 c-3 -6 1 -15 8 -21 8 -7 17 -8 20 -3 3 6 -1 15 -8 21 -8 7 -17 8 -20 3z"/>
 <path d="M7897 3853 c-4 -3 0 -17 8 -30 9 -13 13 -23 10 -23 -3 0 -1 -9 6 -21 8 -15 14 -18 22 -10 7 7 6 16 -5 28 -8 10 -14 23 -11 29 5 13 -21 37 -30 27z"/>
 <path d="M8854 3816 c-21 -21 -33 -40 -28 -47 5 -9 13 -5 26 12 11 13 29 31 40 40 14 11 17 18 9 23 -7 4 -26 -7 -47 -28z"/>
 <path d="M9916 3832 c-3 -6 1 -15 8 -21 8 -7 17 -8 20 -3 3 6 -1 15 -8 21 -8 7 -17 8 -20 3z"/>
 <path d="M5204 3816 c-4 -10 -2 -22 4 -28 8 -8 13 -7 18 6 4 10 2 22 -4 28 -8 8 -13 7 -18 -6z"/>
 <path d="M1090 3804 c-9 -10 -10 -18 -3 -25 8 -8 14 -5 22 9 13 25 -2 38 -19 16z"/>
 <path d="M8105 3810 c-4 -6 -3 -16 3 -22 6 -6 12 -6 17 2 4 6 3 16 -3 22 -6 6 -12 6 -17 -2z"/>
 <path d="M6486 3802 c-3 -6 1 -15 8 -21 8 -7 17 -8 20 -3 3 6 -1 15 -8 21 -8 7 -17 8 -20 3z"/>
 <path d="M6677 3804 c-3 -4 -2 -16 4 -26 8 -15 14 -17 22 -9 8 8 7 15 -4 26 -8 9 -18 13 -22 9z"/>
 <path d="M8421 3782 c-13 -25 2 -38 19 -16 9 10 10 18 3 25 -8 8 -14 5 -22 -9z"/>
 <path d="M8626 3772 c-20 -39 -3 -52 20 -17 12 18 14 29 6 37 -7 7 -15 1 -26 -20z"/>
 <path d="M9956 3782 c-3 -6 1 -15 8 -21 8 -7 17 -8 20 -3 3 6 -1 15 -8 21 -8 7 -17 8 -20 3z"/>
 <path d="M6516 3762 c-8 -14 36 -74 47 -63 6 6 2 20 -12 40 -24 33 -27 35 -35 23z"/>
 <path d="M715 3750 c-4 -6 -3 -16 3 -22 6 -6 12 -6 17 2 4 6 3 16 -3 22 -6 6 -12 6 -17 -2z"/>
 <path d="M1065 3750 c-4 -6 -3 -16 3 -22 6 -6 12 -6 17 2 4 6 3 16 -3 22 -6 6 -12 6 -17 -2z"/>
 <path d="M8105 3750 c-10 -16 51 -74 67 -64 7 4 3 13 -10 23 -12 9 -28 25 -35 35 -11 15 -16 16 -22 6z"/>
 <path d="M9826 3732 c-20 -39 -3 -52 20 -17 12 18 14 29 6 37 -7 7 -15 1 -26 -20z"/>
 <path d="M6756 3741 c-4 -5 -2 -12 3 -15 5 -4 12 -2 15 3 4 5 2 12 -3 15 -5 4 -12 2 -15 -3z"/>
 <path d="M9986 3742 c-3 -6 1 -15 8 -21 8 -7 17 -8 20 -3 3 6 -1 15 -8 21 -8 7 -17 8 -20 3z"/>
 <path d="M7945 3729 c-4 -6 -2 -16 3 -21 7 -7 8 -17 2 -29 -13 -23 4 -34 20 -13 10 10 10 18 2 26 -6 6 -8 16 -6 23 7 17 -12 29 -21 14z"/>
 <path d="M9327 3714 c-3 -4 -2 -16 4 -26 8 -15 14 -17 22 -9 8 8 7 15 -4 26 -8 9 -18 13 -22 9z"/>
 <path d="M690 3685 c-7 -19 -7 -32 -1 -38 7 -7 14 -1 21 18 7 19 7 32 1 38 -7 7 -14 1 -21 -18z"/>
 <path d="M10016 3702 c-3 -6 1 -15 8 -21 8 -7 17 -8 20 -3 3 6 -1 15 -8 21 -8 7 -17 8 -20 3z"/>
 <path d="M6567 3684 c-3 -4 -2 -16 4 -26 8 -15 14 -17 22 -9 8 8 7 15 -4 26 -8 9 -18 13 -22 9z"/>
 <path d="M8636 3682 c-8 -13 66 -114 77 -103 11 11 -30 74 -44 66 -5 -4 -6 0 -3 8 6 15 -21 43 -30 29z"/>
 <path d="M1035 3670 c-4 -6 -3 -16 3 -22 6 -6 12 -6 17 2 4 6 3 16 -3 22 -6 6 -12 6 -17 -2z"/>
 <path d="M5204 3666 c-4 -10 -2 -22 4 -28 8 -8 13 -7 18 6 4 10 2 22 -4 28 -8 8 -13 7 -18 -6z"/>
 <path d="M8344 3656 c-8 -21 3 -49 16 -41 5 3 10 15 10 25 0 25 -18 36 -26 16z"/>
 <path d="M9761 3656 c-7 -8 -8 -17 -3 -20 6 -3 15 1 21 8 7 8 8 17 3 20 -6 3 -15 -1 -21 -8z"/>
 <path d="M10086 3631 c-4 -5 -2 -12 4 -16 5 -3 10 -3 10 1 0 3 6 1 14 -5 10 -8 16 -9 21 -1 3 5 4 11 1 11 -3 1 -9 2 -13 3 -5 1 -13 5 -20 9 -6 4 -14 3 -17 -2z"/>
 <path d="M8967 3614 c-3 -4 -2 -16 4 -26 8 -15 14 -17 22 -9 8 8 7 15 -4 26 -8 9 -18 13 -22 9z"/>
 <path d="M1015 3600 c-4 -6 -3 -16 3 -22 6 -6 12 -6 17 2 4 6 3 16 -3 22 -6 6 -12 6 -17 -2z"/>
 <path d="M6607 3604 c-3 -4 -2 -16 4 -26 8 -15 14 -17 22 -9 8 8 7 15 -4 26 -8 9 -18 13 -22 9z"/>
 <path d="M8509 3610 c0 -3 -2 -19 -3 -35 -1 -17 -5 -36 -9 -42 -4 -7 -3 -14 2 -17 11 -7 36 22 28 31 -4 3 -2 12 5 20 9 11 8 18 -5 31 -10 9 -17 14 -18 12z"/>
 <path d="M655 3580 c-4 -6 -3 -16 3 -22 6 -6 12 -6 17 2 4 6 3 16 -3 22 -6 6 -12 6 -17 -2z"/>
 <path d="M7795 3570 c-4 -6 -3 -16 3 -22 6 -6 12 -6 17 2 4 6 3 16 -3 22 -6 6 -12 6 -17 -2z"/>
 <path d="M9856 3562 c-8 -14 36 -74 47 -63 6 6 2 20 -12 40 -24 33 -27 35 -35 23z"/>
 <path d="M5195 3540 c-4 -6 -3 -16 3 -22 6 -6 12 -6 17 2 4 6 3 16 -3 22 -6 6 -12 6 -17 -2z"/>
 <path d="M995 3530 c-4 -6 -4 -14 -1 -17 3 -3 1 -12 -5 -19 -6 -7 -8 -18 -4 -24 9 -14 28 -1 21 15 -2 7 1 18 7 24 8 8 8 14 0 22 -8 8 -13 8 -18 -1z"/>
 <path d="M6486 3531 c-4 -5 -2 -12 3 -15 5 -4 12 -2 15 3 4 5 2 12 -3 15 -5 4 -12 2 -15 -3z"/>
 <path d="M8727 3533 c-3 -5 1 -24 9 -42 17 -42 41 -30 25 11 -11 29 -27 43 -34 31z"/>
 <path d="M9601 3516 c-7 -8 -8 -17 -3 -20 6 -3 15 1 21 8 7 8 8 17 3 20 -6 3 -15 -1 -21 -8z"/>
 <path d="M635 3510 c-4 -6 -3 -16 3 -22 6 -6 12 -6 17 2 4 6 3 16 -3 22 -6 6 -12 6 -17 -2z"/>
 <path d="M7795 3501 c-7 -13 1 -61 14 -74 12 -12 25 9 14 26 -4 6 -6 19 -5 29 3 19 -14 33 -23 19z"/>
 <path d="M8365 3480 c-4 -6 -3 -16 3 -22 6 -6 12 -6 17 2 4 6 3 16 -3 22 -6 6 -12 6 -17 -2z"/>
 <path d="M5185 3470 c-4 -6 -3 -16 3 -22 6 -6 12 -6 17 2 4 6 3 16 -3 22 -6 6 -12 6 -17 -2z"/>
 <path d="M8496 3472 c-3 -5 5 -19 18 -31 13 -13 26 -18 30 -13 3 5 -5 19 -18 31 -13 13 -26 18 -30 13z"/>
 <path d="M9521 3466 c-7 -8 -8 -17 -3 -20 6 -3 15 1 21 8 7 8 8 17 3 20 -6 3 -15 -1 -21 -8z"/>
 <path d="M9907 3474 c-3 -4 -2 -16 4 -26 8 -15 14 -17 22 -9 8 8 7 15 -4 26 -8 9 -18 13 -22 9z"/>
 <path d="M975 3440 c-4 -6 -3 -16 3 -22 6 -6 12 -6 17 2 4 6 3 16 -3 22 -6 6 -12 6 -17 -2z"/>
 <path d="M4335 3431 c-7 -12 12 -24 25 -16 11 7 4 25 -10 25 -5 0 -11 -4 -15 -9z"/>
 <path d="M4415 3431 c-7 -12 12 -24 25 -16 11 7 4 25 -10 25 -5 0 -11 -4 -15 -9z"/>
 <path d="M4247 3409 c-38 -29 -24 -42 18 -18 19 12 32 25 29 30 -8 13 -16 11 -47 -12z"/>
 <path d="M4475 3421 c-7 -12 35 -42 47 -35 11 7 2 21 -22 34 -11 6 -21 6 -25 1z"/>
 <path d="M5175 3420 c-4 -6 -4 -14 -1 -17 3 -3 1 -12 -5 -19 -6 -7 -8 -18 -4 -24 9 -14 28 -1 21 15 -2 7 1 18 7 24 8 8 8 14 0 22 -8 8 -13 8 -18 -1z"/>
 <path d="M8336 3402 c-20 -38 -4 -51 19 -16 11 18 14 29 7 36 -7 7 -15 0 -26 -20z"/>
 <path d="M8576 3421 c-4 -5 -2 -12 3 -15 5 -4 12 -2 15 3 4 5 2 12 -3 15 -5 4 -12 2 -15 -3z"/>
 <path d="M9441 3416 c-7 -8 -8 -17 -3 -20 6 -3 15 1 21 8 7 8 8 17 3 20 -6 3 -15 -1 -21 -8z"/>
 <path d="M615 3410 c-4 -6 -3 -16 3 -22 6 -6 12 -6 17 2 4 6 3 16 -3 22 -6 6 -12 6 -17 -2z"/>
 <path d="M7876 3401 c-4 -5 -2 -12 3 -15 5 -4 12 -2 15 3 4 5 2 12 -3 15 -5 4 -12 2 -15 -3z"/>
 <path d="M8671 3392 c-13 -25 2 -38 19 -16 9 10 10 18 3 25 -8 8 -14 5 -22 -9z"/>
 <path d="M9898 3360 c-28 -55 -21 -76 10 -33 25 36 35 70 24 77 -5 3 -21 -17 -34 -44z"/>
 <path d="M965 3380 c-4 -6 -3 -16 3 -22 6 -6 12 -6 17 2 4 6 3 16 -3 22 -6 6 -12 6 -17 -2z"/>
 <path d="M4536 3382 c-3 -5 3 -17 13 -26 11 -10 22 -13 25 -8 3 5 -3 17 -13 26 -11 10 -22 13 -25 8z"/>
 <path d="M7955 3368 c-9 -24 -1 -143 10 -143 13 0 19 135 6 148 -7 7 -12 5 -16 -5z"/>
 <path d="M9381 3362 c-13 -25 2 -38 19 -16 9 10 10 18 3 25 -8 8 -14 5 -22 -9z"/>
 <path d="M8281 3342 c-13 -25 2 -38 19 -16 9 10 10 18 3 25 -8 8 -14 5 -22 -9z"/>
 <path d="M8664 3336 c-11 -29 3 -97 26 -121 31 -33 45 -21 18 16 -16 21 -21 41 -19 68 2 40 -14 65 -25 37z"/>
 <path d="M605 3330 c-4 -6 -3 -16 3 -22 6 -6 12 -6 17 2 4 6 3 16 -3 22 -6 6 -12 6 -17 -2z"/>
 <path d="M4576 3332 c-3 -6 1 -15 8 -21 8 -7 17 -8 20 -3 3 6 -1 15 -8 21 -8 7 -17 8 -20 3z"/>
 <path d="M955 3320 c-4 -6 -3 -16 3 -22 6 -6 12 -6 17 2 4 6 3 16 -3 22 -6 6 -12 6 -17 -2z"/>
 <path d="M4141 3306 c-7 -8 -8 -17 -3 -20 6 -3 15 1 21 8 7 8 8 17 3 20 -6 3 -15 -1 -21 -8z"/>
 <path d="M6365 3300 c-4 -6 -3 -16 3 -22 6 -6 12 -6 17 2 4 6 3 16 -3 22 -6 6 -12 6 -17 -2z"/>
 <path d="M9857 3294 c-3 -4 -2 -16 4 -26 8 -15 14 -17 22 -9 8 8 7 15 -4 26 -8 9 -18 13 -22 9z"/>
 <path d="M943 3277 c-11 -19 17 -28 78 -25 36 2 63 7 62 13 -3 12 -133 23 -140 12z"/>
 <path d="M4606 3282 c-3 -6 -1 -23 6 -39 6 -15 10 -33 9 -40 -2 -16 16 -26 24 -13 3 5 3 15 -1 22 -4 7 -9 23 -10 37 -3 29 -19 47 -28 33z"/>
 <path d="M4111 3261 c-7 -12 -9 -21 -5 -21 3 0 1 -7 -6 -15 -7 -9 -10 -18 -7 -22 4 -3 2 -12 -4 -19 -6 -7 -8 -18 -4 -24 9 -14 28 -1 21 16 -3 7 -1 16 5 20 6 3 8 11 6 17 -2 7 3 20 11 30 11 12 12 21 5 28 -8 8 -14 5 -22 -10z"/>
 <path d="M1156 3261 c-4 -5 -2 -12 3 -15 5 -4 12 -2 15 3 4 5 2 12 -3 15 -5 4 -12 2 -15 -3z"/>
 <path d="M1215 3251 c-7 -12 12 -24 25 -16 11 7 4 25 -10 25 -5 0 -11 -4 -15 -9z"/>
 <path d="M9407 3254 c-3 -4 -2 -16 4 -26 8 -15 14 -17 22 -9 8 8 7 15 -4 26 -8 9 -18 13 -22 9z"/>
 <path d="M1265 3241 c-7 -12 12 -24 25 -16 11 7 4 25 -10 25 -5 0 -11 -4 -15 -9z"/>
 <path d="M5100 3211 c-25 -50 -9 -65 20 -19 23 37 24 44 10 53 -5 3 -18 -12 -30 -34z"/>
 <path d="M8386 3241 c-4 -5 -2 -12 4 -16 5 -3 10 -3 10 1 0 3 6 1 14 -5 10 -8 16 -9 21 -1 3 5 4 11 1 11 -3 1 -9 2 -13 3 -5 1 -13 5 -20 9 -6 4 -14 3 -17 -2z"/>
 <path d="M1315 3231 c-6 -11 13 -26 22 -17 3 3 12 1 19 -5 7 -6 18 -8 24 -4 14 9 1 28 -16 21 -7 -3 -16 -1 -19 4 -8 13 -22 13 -30 1z"/>
 <path d="M6486 3211 c-4 -5 -2 -12 3 -15 5 -4 12 -2 15 3 4 5 2 12 -3 15 -5 4 -12 2 -15 -3z"/>
 <path d="M1425 3201 c-7 -12 12 -24 25 -16 11 7 4 25 -10 25 -5 0 -11 -4 -15 -9z"/>
 <path d="M595 3188 c-9 -24 -2 -93 10 -93 14 0 19 85 6 98 -7 7 -12 5 -16 -5z"/>
 <path d="M1495 3180 c-3 -6 0 -12 7 -15 77 -29 192 -64 196 -60 3 3 12 -1 21 -9 23 -20 58 -29 66 -16 5 8 -24 25 -60 34 -5 2 -17 6 -25 9 -16 7 -192 67 -196 67 -2 0 -6 -5 -9 -10z"/>
 <path d="M8606 3171 c-4 -5 -2 -12 3 -15 5 -4 12 -2 15 3 4 5 2 12 -3 15 -5 4 -12 2 -15 -3z"/>
 <path d="M5051 3126 c-7 -8 -8 -17 -3 -20 6 -3 15 1 21 8 7 8 8 17 3 20 -6 3 -15 -1 -21 -8z"/>
 <path d="M4634 3116 c-4 -10 -2 -22 4 -28 8 -8 13 -7 18 6 4 10 2 22 -4 28 -8 8 -13 7 -18 -6z"/>
 <path d="M4991 3066 c-7 -8 -8 -17 -3 -20 6 -3 15 1 21 8 7 8 8 17 3 20 -6 3 -15 -1 -21 -8z"/>
 <path d="M1835 3061 c-7 -12 12 -24 25 -16 11 7 4 25 -10 25 -5 0 -11 -4 -15 -9z"/>
 <path d="M5756 3063 c-3 -3 -2 -11 4 -18 5 -6 10 -122 11 -264 l1 -253 -27 -28 c-15 -15 -22 -30 -17 -34 13 -8 75 59 77 83 1 11 7 26 14 35 10 12 13 66 12 223 -2 180 -4 210 -19 226 -21 24 -48 38 -56 30z"/>
 <path d="M5672 3044 c-32 -22 -18 -35 18 -17 17 8 28 19 25 24 -8 13 -17 11 -43 -7z"/>
 <path d="M1885 3041 c-7 -12 12 -24 25 -16 11 7 4 25 -10 25 -5 0 -11 -4 -15 -9z"/>
 <path d="M4635 3037 c-8 -20 13 -50 30 -43 7 2 17 0 23 -6 12 -12 35 -1 26 13 -3 6 -12 8 -20 5 -7 -3 -22 7 -33 22 -17 24 -20 25 -26 9z"/>
 <path d="M1935 3021 c-7 -12 12 -24 25 -16 11 7 4 25 -10 25 -5 0 -11 -4 -15 -9z"/>
 <path d="M4085 3010 c-4 -6 -3 -16 3 -22 6 -6 12 -6 17 2 4 6 3 16 -3 22 -6 6 -12 6 -17 -2z"/>
 <path d="M4871 3009 c-16 -6 -21 -13 -14 -20 13 -13 67 7 58 21 -7 12 -12 12 -44 -1z"/>
 <path d="M1985 3001 c-7 -12 12 -24 25 -16 11 7 4 25 -10 25 -5 0 -11 -4 -15 -9z"/>
 <path d="M4765 2990 c-8 -13 20 -24 41 -16 20 8 9 26 -16 26 -10 0 -22 -5 -25 -10z"/>
 <path d="M605 2980 c-4 -6 -3 -16 3 -22 6 -6 12 -6 17 2 4 6 3 16 -3 22 -6 6 -12 6 -17 -2z"/>
 <path d="M2035 2981 c-7 -12 12 -24 25 -16 11 7 4 25 -10 25 -5 0 -11 -4 -15 -9z"/>
 <path d="M4095 2960 c-4 -6 -3 -16 3 -22 6 -6 12 -6 17 2 4 6 3 16 -3 22 -6 6 -12 6 -17 -2z"/>
 <path d="M5580 2945 c-7 -19 -7 -32 -1 -38 7 -7 14 -1 21 18 7 19 7 32 1 38 -7 7 -14 1 -21 -18z"/>
 <path d="M2105 2951 c-7 -12 12 -24 25 -16 11 7 4 25 -10 25 -5 0 -11 -4 -15 -9z"/>
 <path d="M2155 2931 c-7 -13 32 -34 47 -25 7 5 5 11 -7 21 -22 15 -32 16 -40 4z"/>
 <path d="M615 2900 c-4 -6 -3 -16 3 -22 6 -6 12 -6 17 2 4 6 3 16 -3 22 -6 6 -12 6 -17 -2z"/>
 <path d="M2245 2891 c-7 -12 12 -24 25 -16 11 7 4 25 -10 25 -5 0 -11 -4 -15 -9z"/>
 <path d="M2306 2871 c-9 -15 23 -36 35 -24 8 8 5 14 -9 22 -12 6 -23 7 -26 2z"/>
 <path d="M4125 2870 c-4 -6 -3 -16 3 -22 6 -6 12 -6 17 2 4 6 3 16 -3 22 -6 6 -12 6 -17 -2z"/>
 <path d="M5565 2870 c-4 -6 -3 -16 3 -22 6 -6 12 -6 17 2 4 6 3 16 -3 22 -6 6 -12 6 -17 -2z"/>
 <path d="M2385 2831 c-7 -13 32 -34 47 -25 7 5 5 11 -7 21 -22 15 -32 16 -40 4z"/>
 <path d="M635 2800 c-4 -6 -2 -17 4 -24 6 -7 8 -16 4 -19 -3 -4 -1 -13 5 -20 7 -8 9 -16 7 -19 -3 -3 -1 -18 5 -33 7 -19 14 -25 21 -18 6 6 6 19 -2 39 -7 16 -11 34 -10 41 1 6 -3 14 -8 18 -6 3 -8 12 -5 19 7 17 -12 30 -21 16z"/>
 <path d="M2466 2801 c-9 -15 23 -36 35 -24 8 8 5 14 -9 22 -12 6 -23 7 -26 2z"/>
 <path d="M5391 2776 c-7 -8 -8 -17 -3 -20 6 -3 15 1 21 8 7 8 8 17 3 20 -6 3 -15 -1 -21 -8z"/>
 <path d="M5535 2780 c-4 -6 -3 -16 3 -22 6 -6 12 -6 17 2 4 6 3 16 -3 22 -6 6 -12 6 -17 -2z"/>
 <path d="M2556 2761 c-9 -15 23 -36 35 -24 8 8 5 14 -9 22 -12 6 -23 7 -26 2z"/>
 <path d="M4177 2762 c-9 -13 45 -94 55 -84 6 6 0 25 -16 51 -27 42 -32 46 -39 33z"/>
 <path d="M5356 2731 c-10 -11 -13 -22 -8 -25 5 -3 17 3 26 13 10 11 13 22 8 25 -5 3 -17 -3 -26 -13z"/>
 <path d="M2646 2721 c-9 -15 23 -36 35 -24 8 8 5 14 -9 22 -12 6 -23 7 -26 2z"/>
 <path d="M5491 2692 c-13 -25 2 -38 19 -16 9 10 10 18 3 25 -8 8 -14 5 -22 -9z"/>
 <path d="M2735 2680 c-9 -15 44 -45 57 -32 7 7 1 15 -20 26 -18 9 -33 12 -37 6z"/>
 <path d="M5316 2672 c-3 -5 3 -17 13 -26 11 -10 22 -13 25 -8 3 5 -3 17 -13 26 -11 10 -22 13 -25 8z"/>
 <path d="M4246 2652 c-3 -6 1 -15 8 -21 8 -7 17 -8 20 -3 3 6 -1 15 -8 21 -8 7 -17 8 -20 3z"/>
 <path d="M685 2630 c-4 -6 -3 -16 3 -22 6 -6 12 -6 17 2 4 6 3 16 -3 22 -6 6 -12 6 -17 -2z"/>
 <path d="M2835 2631 c-7 -13 32 -34 47 -25 7 5 5 11 -7 21 -22 15 -32 16 -40 4z"/>
 <path d="M2915 2600 c-9 -15 44 -45 57 -32 7 7 1 15 -20 26 -18 9 -33 12 -37 6z"/>
 <path d="M3005 2560 c-9 -15 44 -45 57 -32 7 7 1 15 -20 26 -18 9 -33 12 -37 6z"/>
 <path d="M4365 2551 c-7 -12 35 -42 47 -35 11 7 2 21 -22 34 -11 6 -21 6 -25 1z"/>
 <path d="M717 2544 c-3 -4 -2 -16 4 -26 8 -15 14 -17 22 -9 8 8 7 15 -4 26 -8 9 -18 13 -22 9z"/>
 <path d="M3078 2519 c-17 -9 -18 -54 -18 -708 l0 -699 -47 5 c-100 10 -253 46 -378 89 -71 25 -137 46 -145 47 -22 3 -21 -42 2 -54 23 -12 82 -134 74 -154 -3 -8 -1 -17 4 -20 13 -8 13 -322 1 -330 -6 -3 -7 -27 -4 -54 3 -31 1 -51 -6 -55 -6 -4 -8 -18 -5 -32 3 -13 1 -31 -5 -38 -7 -8 -9 -25 -6 -39 4 -14 2 -28 -5 -32 -6 -4 -8 -16 -4 -27 3 -11 0 -31 -7 -44 -16 -31 1 -55 25 -35 8 7 24 10 35 6 12 -3 31 1 45 10 14 9 34 14 44 11 11 -4 24 0 31 8 7 8 18 13 24 10 26 -9 153 80 235 166 24 25 54 56 68 70 13 14 24 31 24 38 0 7 5 12 10 12 6 0 14 10 19 23 5 12 25 44 45 71 21 26 48 71 61 99 14 29 21 41 17 27 -11 -37 -5 -148 13 -235 4 -16 7 -37 9 -45 1 -9 6 -21 10 -28 4 -7 5 -16 2 -19 -3 -3 -1 -12 4 -18 6 -7 13 -28 15 -47 2 -19 11 -48 20 -64 8 -16 15 -37 15 -46 0 -9 4 -19 9 -23 5 -3 13 -20 17 -37 3 -18 10 -39 15 -48 9 -18 54 -116 80 -176 10 -24 24 -44 31 -44 21 0 59 30 52 42 -4 6 -10 6 -17 -1 -20 -20 -35 -11 -52 32 -69 165 -94 241 -84 253 7 8 7 14 -1 19 -6 4 -10 116 -10 335 l0 329 53 5 c235 23 298 31 417 52 127 23 313 69 335 82 6 4 19 7 30 7 11 0 25 3 30 6 6 4 48 19 95 34 47 15 95 34 108 41 12 8 22 12 22 9 0 -3 9 -1 20 5 11 6 18 15 15 21 -4 5 -15 4 -28 -3 -12 -7 -27 -13 -34 -14 -7 -1 -55 -16 -108 -34 -59 -19 -102 -29 -113 -24 -9 4 -20 6 -24 6 -5 -1 -8 181 -8 404 0 333 2 405 13 401 54 -21 181 -57 185 -52 3 2 11 0 19 -6 7 -6 13 -8 13 -4 0 4 7 2 15 -5 9 -7 18 -10 22 -7 3 4 12 2 19 -4 8 -7 14 -7 19 1 3 5 4 11 1 11 -14 3 -27 7 -33 9 -5 2 -12 4 -18 5 -5 2 -13 4 -17 5 -5 1 -11 3 -15 5 -7 1 -40 14 -83 32 -8 3 -22 7 -30 8 -26 3 -94 28 -116 42 -11 7 -24 10 -27 7 -4 -4 -12 -2 -19 3 -7 5 -33 15 -58 22 -25 7 -54 19 -65 27 -11 8 -29 14 -40 14 -11 0 -29 7 -39 15 -11 8 -28 15 -38 15 -10 0 -26 4 -36 9 -9 5 -28 13 -42 18 -14 6 -38 16 -55 23 -16 7 -39 16 -50 20 -32 12 -66 27 -128 56 -32 14 -61 24 -64 20 -4 -3 -14 0 -22 8 -20 18 -243 114 -262 114 -33 -2 -50 3 -44 12 3 5 -8 16 -24 25 -35 18 -31 17 -53 4z"/>
 <path d="M5099 2512 c-13 -12 -18 -21 -12 -25 6 -4 21 1 34 11 13 12 18 21 12 25 -6 4 -21 -1 -34 -11z"/>
 <path d="M4455 2501 c-5 -9 19 -28 35 -29 3 0 16 -5 30 -10 53 -20 69 -22 75 -12 7 11 -34 30 -73 34 -12 2 -28 8 -34 14 -14 14 -25 15 -33 3z"/>
 <path d="M5035 2481 c-7 -12 12 -24 25 -16 11 7 4 25 -10 25 -5 0 -11 -4 -15 -9z"/>
 <path d="M5216 2472 c-3 -6 1 -15 8 -21 8 -7 17 -8 20 -3 3 6 -1 15 -8 21 -8 7 -17 8 -20 3z"/>
 <path d="M4945 2451 c-7 -12 12 -24 25 -16 11 7 4 25 -10 25 -5 0 -11 -4 -15 -9z"/>
 <path d="M6307 2453 c-11 -10 -8 -31 8 -70 21 -50 38 -31 22 24 -14 46 -20 56 -30 46z"/>
 <path d="M4655 2441 c-7 -12 12 -24 25 -16 11 7 4 25 -10 25 -5 0 -11 -4 -15 -9z"/>
 <path d="M4735 2429 c-8 -13 12 -18 60 -16 22 1 40 7 40 12 -1 13 -93 17 -100 4z"/>
 <path d="M5265 2430 c-3 -5 12 -18 34 -30 50 -25 65 -9 19 20 -37 23 -44 24 -53 10z"/>
 <path d="M6753 2414 c-12 -24 -11 -49 2 -49 6 0 10 5 10 10 0 6 4 16 9 23 5 8 4 18 -2 24 -7 7 -13 4 -19 -8z"/>
 <path d="M7606 2402 c-20 -39 -3 -52 20 -17 12 18 14 29 6 37 -7 7 -15 1 -26 -20z"/>
 <path d="M786 2402 c-3 -6 1 -15 8 -21 8 -7 17 -8 20 -3 3 6 -1 15 -8 21 -8 7 -17 8 -20 3z"/>
 <path d="M5555 2391 c-7 -12 12 -24 25 -16 11 7 4 25 -10 25 -5 0 -11 -4 -15 -9z"/>
 <path d="M5405 2380 c-8 -12 20 -24 35 -15 6 3 8 11 5 16 -8 12 -32 12 -40 -1z"/>
 <path d="M5505 2381 c-7 -12 12 -24 25 -16 11 7 4 25 -10 25 -5 0 -11 -4 -15 -9z"/>
 <path d="M6927 2353 c-2 -5 2 -23 10 -42 17 -41 40 -30 24 11 -11 28 -27 43 -34 31z"/>
 <path d="M6565 2319 c-10 -26 -1 -439 10 -442 14 -3 19 433 6 446 -7 7 -12 5 -16 -4z"/>
 <path d="M7155 2320 c-4 -6 -3 -16 3 -22 6 -6 12 -6 17 2 4 6 3 16 -3 22 -6 6 -12 6 -17 -2z"/>
 <path d="M6345 2307 c-4 -8 -1 -26 6 -39 7 -13 12 -28 11 -35 -3 -15 15 -26 23 -13 3 5 3 15 -1 22 -4 7 -9 23 -10 37 -4 32 -21 50 -29 28z"/>
 <path d="M847 2304 c-3 -6 4 -23 17 -39 13 -15 25 -24 29 -19 3 6 -4 23 -17 39 -13 15 -25 24 -29 19z"/>
 <path d="M8391 2286 c-7 -8 -8 -17 -3 -20 6 -3 15 1 21 8 7 8 8 17 3 20 -6 3 -15 -1 -21 -8z"/>
 <path d="M7855 2280 c-4 -6 -3 -16 3 -22 6 -6 12 -6 17 2 4 6 3 16 -3 22 -6 6 -12 6 -17 -2z"/>
 <path d="M8341 2236 c-7 -8 -8 -17 -3 -20 6 -3 15 1 21 8 7 8 8 17 3 20 -6 3 -15 -1 -21 -8z"/>
 <path d="M896 2232 c-3 -6 1 -15 8 -21 8 -7 17 -8 20 -3 3 6 -1 15 -8 21 -8 7 -17 8 -20 3z"/>
 <path d="M926 2192 c-3 -6 1 -15 8 -21 8 -7 17 -8 20 -3 3 6 -1 15 -8 21 -8 7 -17 8 -20 3z"/>
 <path d="M8315 2180 c-4 -6 -3 -16 3 -22 6 -6 12 -6 17 2 4 6 3 16 -3 22 -6 6 -12 6 -17 -2z"/>
 <path d="M7866 2161 c-4 -5 -2 -12 3 -15 5 -4 12 -2 15 3 4 5 2 12 -3 15 -5 4 -12 2 -15 -3z"/>
 <path d="M966 2142 c-3 -6 1 -15 8 -21 8 -7 17 -8 20 -3 3 6 -1 15 -8 21 -8 7 -17 8 -20 3z"/>
 <path d="M8315 2100 c-4 -6 -3 -16 3 -22 6 -6 12 -6 17 2 4 6 3 16 -3 22 -6 6 -12 6 -17 -2z"/>
 <path d="M9596 2091 c-4 -5 -2 -12 3 -15 5 -4 12 -2 15 3 4 5 2 12 -3 15 -5 4 -12 2 -15 -3z"/>
 <path d="M9204 2078 c-4 -7 -14 -23 -21 -35 -23 -34 3 -37 27 -2 15 20 19 34 12 41 -6 6 -12 5 -18 -4z"/>
 <path d="M1026 2072 c-3 -5 5 -19 18 -31 13 -13 26 -18 30 -13 3 5 -5 19 -18 31 -13 13 -26 18 -30 13z"/>
 <path d="M9551 2056 c-7 -8 -8 -17 -3 -20 6 -3 15 1 21 8 7 8 8 17 3 20 -6 3 -15 -1 -21 -8z"/>
 <path d="M6376 2041 c-10 -11 -13 -22 -8 -25 5 -3 17 3 26 13 10 11 13 22 8 25 -5 3 -17 -3 -26 -13z"/>
 <path d="M4516 1981 c-4 -5 -2 -12 3 -15 5 -4 12 -2 15 3 4 5 2 12 -3 15 -5 4 -12 2 -15 -3z"/>
 <path d="M7165 1978 c-9 -24 -1 -113 10 -111 14 4 19 103 6 116 -7 7 -12 5 -16 -5z"/>
 <path d="M9117 1954 c-14 -21 -24 -41 -21 -46 9 -14 36 13 30 29 -3 8 -2 12 3 9 14 -9 36 23 24 35 -6 6 -19 -3 -36 -27z"/>
 <path d="M9596 1962 c-3 -6 1 -15 8 -21 8 -7 17 -8 20 -3 3 6 -1 15 -8 21 -8 7 -17 8 -20 3z"/>
 <path d="M1156 1942 c-3 -5 5 -19 18 -31 13 -13 26 -18 30 -13 3 5 -5 19 -18 31 -13 13 -26 18 -30 13z"/>
 <path d="M6326 1922 c-3 -6 1 -15 8 -21 8 -7 17 -8 20 -3 3 6 -1 15 -8 21 -8 7 -17 8 -20 3z"/>
 <path d="M9636 1912 c-3 -6 1 -15 8 -21 8 -7 17 -8 20 -3 3 6 -1 15 -8 21 -8 7 -17 8 -20 3z"/>
 <path d="M9075 1881 c-3 -6 15 -24 39 -40 25 -17 47 -27 51 -22 3 6 -15 24 -39 40 -25 17 -47 27 -51 22z"/>
 <path d="M1246 1862 c-3 -5 3 -17 13 -26 11 -10 22 -13 25 -8 3 5 -3 17 -13 26 -11 10 -22 13 -25 8z"/>
 <path d="M6431 1846 c-7 -8 -8 -17 -3 -20 6 -3 15 1 21 8 7 8 8 17 3 20 -6 3 -15 -1 -21 -8z"/>
 <path d="M7826 1852 c-3 -6 1 -15 8 -21 8 -7 17 -8 20 -3 3 6 -1 15 -8 21 -8 7 -17 8 -20 3z"/>
 <path d="M1306 1812 c-3 -6 1 -15 8 -21 8 -7 17 -8 20 -3 3 6 -1 15 -8 21 -8 7 -17 8 -20 3z"/>
 <path d="M6532 1801 c-10 -28 -1 -107 13 -104 6 2 11 26 13 54 3 57 -12 87 -26 50z"/>
 <path d="M6331 1756 c-21 -22 -21 -23 -3 -39 25 -23 37 -9 15 16 -10 11 -13 17 -7 14 14 -8 39 19 26 27 -5 3 -19 -5 -31 -18z"/>
 <path d="M1426 1722 c-3 -6 1 -15 8 -21 8 -7 17 -8 20 -3 3 6 -1 15 -8 21 -8 7 -17 8 -20 3z"/>
 <path d="M1536 1641 c-3 -5 10 -18 29 -30 43 -25 56 -10 16 18 -33 24 -37 25 -45 12z"/>
 <path d="M1615 1591 c-6 -11 29 -33 39 -24 7 7 -12 33 -25 33 -4 0 -10 -4 -14 -9z"/>
 <path d="M1676 1562 c-3 -6 1 -15 8 -21 8 -7 17 -8 20 -3 3 6 -1 15 -8 21 -8 7 -17 8 -20 3z"/>
 <path d="M1766 1511 c-7 -10 7 -22 51 -45 32 -16 54 -7 30 12 -27 21 -76 41 -81 33z"/>
 <path d="M1875 1450 c-9 -14 75 -54 87 -42 7 7 -3 17 -30 31 -47 24 -49 24 -57 11z"/>
 <path d="M2005 1391 c-7 -13 32 -34 47 -25 7 5 5 11 -7 21 -22 15 -32 16 -40 4z"/>
 <path d="M2095 1351 c-7 -12 12 -24 25 -16 11 7 4 25 -10 25 -5 0 -11 -4 -15 -9z"/>
 <path d="M2145 1331 c-7 -12 12 -24 25 -16 11 7 4 25 -10 25 -5 0 -11 -4 -15 -9z"/>
 <path d="M2225 1301 c-3 -6 9 -17 27 -24 37 -16 57 -11 36 8 -19 19 -55 27 -63 16z"/>
 <path d="M2406 1241 c-9 -14 32 -34 51 -26 10 3 13 9 7 14 -16 15 -52 22 -58 12z"/>
 <path d="M3566 191 c-4 -5 -2 -12 3 -15 5 -4 12 -2 15 3 4 5 2 12 -3 15 -5 4 -12 2 -15 -3z"/>
 <path d="M3546 161 c-4 -5 -2 -12 3 -15 5 -4 12 -2 15 3 4 5 2 12 -3 15 -5 4 -12 2 -15 -3z"/>
 </g>
<g id="layer4" fill="#963446" stroke="none">
 <path d="M3136 5171 c-9 -15 23 -36 36 -23 5 5 7 15 4 21 -9 13 -33 14 -40 2z"/>
 <path d="M3076 5161 c-8 -12 21 -34 34 -26 8 5 8 11 -1 21 -13 16 -25 18 -33 5z"/>
 <path d="M2985 5151 c-6 -11 1 -16 37 -25 36 -8 46 11 13 24 -33 12 -42 13 -50 1z"/>
 <path d="M2835 5131 c-7 -12 12 -24 25 -16 11 7 4 25 -10 25 -5 0 -11 -4 -15 -9z"/>
 <path d="M2935 5121 c-7 -12 12 -24 25 -16 11 7 4 25 -10 25 -5 0 -11 -4 -15 -9z"/>
 <path d="M2715 5111 c-7 -12 12 -24 25 -16 11 7 4 25 -10 25 -5 0 -11 -4 -15 -9z"/>
 <path d="M2635 5041 c-7 -12 12 -24 25 -16 11 7 4 25 -10 25 -5 0 -11 -4 -15 -9z"/>
 <path d="M1985 4911 c-7 -12 12 -24 25 -16 11 7 4 25 -10 25 -5 0 -11 -4 -15 -9z"/>
 <path d="M2235 4891 c-7 -12 12 -24 25 -16 11 7 4 25 -10 25 -5 0 -11 -4 -15 -9z"/>
 <path d="M1641 4746 c-7 -8 -8 -17 -3 -20 6 -3 15 1 21 8 7 8 8 17 3 20 -6 3 -15 -1 -21 -8z"/>
 <path d="M3427 4684 c-11 -11 -8 -522 2 -529 6 -3 17 9 26 28 23 48 18 500 -5 505 -9 1 -19 0 -23 -4z"/>
 <path d="M4180 4683 c0 -5 0 -127 0 -273 1 -242 8 -319 25 -264 4 10 11 27 16 36 14 27 12 481 -3 496 -13 13 -38 16 -38 5z"/>
 <path d="M2627 4664 c-11 -11 -8 -522 3 -529 5 -3 16 5 25 18 23 36 18 510 -5 515 -9 1 -19 0 -23 -4z"/>
 <path d="M5026 4282 c-3 -6 1 -15 8 -21 8 -7 17 -8 20 -3 3 6 -1 15 -8 21 -8 7 -17 8 -20 3z"/>
 <path d="M3886 4122 c-3 -6 1 -15 8 -21 8 -7 17 -8 20 -3 3 6 -1 15 -8 21 -8 7 -17 8 -20 3z"/>
 <path d="M5476 4032 c-3 -6 1 -15 8 -21 8 -7 17 -8 20 -3 3 6 -1 15 -8 21 -8 7 -17 8 -20 3z"/>
 <path d="M3985 4021 c-7 -12 12 -24 25 -16 11 7 4 25 -10 25 -5 0 -11 -4 -15 -9z"/>
 <path d="M4065 4021 c-7 -12 12 -24 25 -16 11 7 4 25 -10 25 -5 0 -11 -4 -15 -9z"/>
 <path d="M5165 4000 c-4 -6 -3 -16 3 -22 6 -6 12 -6 17 2 4 6 3 16 -3 22 -6 6 -12 6 -17 -2z"/>
 <path d="M5521 3936 c-14 -17 -15 -962 -1 -971 10 -6 35 34 26 42 -3 3 4 17 14 31 11 13 20 33 20 43 0 10 5 30 12 46 6 15 12 31 12 35 1 3 4 9 8 13 4 4 4 13 2 20 -3 7 -1 16 4 19 6 3 8 15 5 25 -3 10 0 22 6 25 5 4 8 13 4 21 -3 8 -2 23 3 33 21 48 21 275 0 324 -4 9 -5 21 -2 27 4 5 2 13 -4 16 -6 4 -10 14 -9 23 1 10 -3 31 -10 47 -7 17 -19 53 -26 81 -12 48 -41 114 -49 114 -2 0 -9 -6 -15 -14z m92 -461 c0 -82 -5 -163 -11 -180 -7 -22 -10 26 -10 190 0 174 3 212 11 180 6 -22 11 -107 10 -190z"/>
 <path d="M4315 3431 c-7 -12 12 -24 25 -16 11 7 4 25 -10 25 -5 0 -11 -4 -15 -9z"/>
 <path d="M605 3350 c-4 -6 -3 -16 3 -22 6 -6 12 -6 17 2 4 6 3 16 -3 22 -6 6 -12 6 -17 -2z"/>
 <path d="M1165 3261 c-7 -12 12 -24 25 -16 11 7 4 25 -10 25 -5 0 -11 -4 -15 -9z"/>
 <path d="M1395 3211 c-7 -12 12 -24 25 -16 11 7 4 25 -10 25 -5 0 -11 -4 -15 -9z"/>
 <path d="M4635 3140 c-4 -6 -3 -16 3 -22 6 -6 12 -6 17 2 4 6 3 16 -3 22 -6 6 -12 6 -17 -2z"/>
 <path d="M5817 3024 c-10 -11 -9 -372 2 -378 14 -9 29 15 42 69 6 28 15 55 19 60 13 18 5 149 -12 185 -21 47 -42 73 -51 64z"/>
 <path d="M2225 2901 c-7 -12 12 -24 25 -16 11 7 4 25 -10 25 -5 0 -11 -4 -15 -9z"/>
 <path d="M5470 2894 c-9 -10 -10 -18 -3 -25 8 -8 14 -5 22 9 13 25 -2 38 -19 16z"/>
 <path d="M695 2600 c-4 -6 -3 -16 3 -22 6 -6 12 -6 17 2 4 6 3 16 -3 22 -6 6 -12 6 -17 -2z"/>
 <path d="M5800 2584 c-9 -10 -10 -18 -3 -25 8 -8 14 -5 22 9 13 25 -2 38 -19 16z"/>
 <path d="M3175 2481 c-7 -12 12 -24 25 -16 11 7 4 25 -10 25 -5 0 -11 -4 -15 -9z"/>
 <path d="M4825 2431 c-7 -12 12 -24 25 -16 11 7 4 25 -10 25 -5 0 -11 -4 -15 -9z"/>
 <path d="M5636 2421 c-4 -5 -2 -12 3 -15 5 -4 12 -2 15 3 4 5 2 12 -3 15 -5 4 -12 2 -15 -3z"/>
 <path d="M796 2382 c-3 -6 1 -15 8 -21 8 -7 17 -8 20 -3 3 6 -1 15 -8 21 -8 7 -17 8 -20 3z"/>
 <path d="M3455 2361 c-7 -12 12 -24 25 -16 11 7 4 25 -10 25 -5 0 -11 -4 -15 -9z"/>
 <path d="M3566 2321 c-9 -15 23 -36 35 -24 8 8 5 14 -9 22 -12 6 -23 7 -26 2z"/>
 <path d="M3625 2291 c-7 -12 12 -24 25 -16 11 7 4 25 -10 25 -5 0 -11 -4 -15 -9z"/>
 <path d="M3675 2271 c-7 -12 12 -24 25 -16 11 7 4 25 -10 25 -5 0 -11 -4 -15 -9z"/>
 <path d="M3775 2231 c-6 -11 13 -26 22 -17 4 3 15 -2 25 -11 13 -12 22 -13 29 -6 8 8 5 14 -10 22 -12 7 -21 8 -21 4 0 -4 -5 -2 -12 5 -14 14 -25 15 -33 3z"/>
 <path d="M3896 2191 c-9 -15 23 -36 35 -24 8 8 5 14 -9 22 -12 6 -23 7 -26 2z"/>
 <path d="M3975 2161 c-2 -5 1 -14 8 -20 18 -14 51 -18 55 -7 4 12 -56 37 -63 27z"/>
 <path d="M4086 2121 c-9 -15 23 -36 35 -24 8 8 5 14 -9 22 -12 6 -23 7 -26 2z"/>
 <path d="M4140 2090 c-6 -12 -10 -178 -10 -444 l0 -425 -42 -11 c-24 -6 -56 -15 -73 -20 -100 -31 -370 -75 -556 -90 -68 -6 -127 -14 -131 -18 -4 -4 -8 -164 -8 -354 -1 -192 -5 -350 -10 -353 -13 -8 17 -71 32 -67 10 3 10 1 1 -9 -15 -15 2 -53 20 -43 9 5 9 4 0 -6 -9 -10 -8 -21 8 -51 11 -22 24 -39 30 -39 6 0 8 -7 5 -16 -3 -8 1 -28 8 -43 12 -23 21 -28 52 -28 28 0 44 8 71 35 19 18 39 44 44 55 5 12 21 40 34 62 14 22 25 50 25 62 0 12 5 25 10 28 6 3 10 17 10 30 0 13 4 26 9 29 9 6 27 83 23 99 -1 4 2 16 7 26 6 10 13 42 16 72 3 30 7 68 10 84 12 83 19 166 19 215 -1 30 1 48 4 40 13 -43 53 -120 62 -120 5 0 10 -4 10 -10 0 -13 156 -170 168 -170 6 0 12 -7 16 -15 3 -8 12 -15 19 -15 8 0 27 -13 43 -30 16 -16 33 -30 37 -30 4 0 41 -22 82 -49 41 -27 76 -47 79 -44 2 2 -18 34 -45 70 -57 75 -96 147 -104 194 -3 18 -10 38 -14 44 -10 12 -10 14 -13 128 -2 49 1 91 5 94 5 3 6 12 3 20 -4 9 -2 21 3 27 5 6 10 14 10 19 1 4 1 8 2 10 0 1 3 13 5 27 8 42 81 165 97 162 19 -3 184 55 217 76 14 9 30 17 35 17 40 4 256 110 362 178 24 15 45 27 48 27 3 0 27 16 54 35 26 19 52 35 57 35 5 0 20 12 33 25 13 14 29 25 37 25 7 0 18 9 24 20 6 11 17 20 25 20 8 0 18 6 22 14 4 7 53 53 108 101 112 99 131 120 115 130 -6 4 -16 2 -23 -3 -7 -6 -23 -10 -37 -11 -151 -2 -296 -1 -345 4 -105 11 -161 20 -242 38 -34 8 -65 12 -67 9 -3 -3 -12 0 -19 6 -7 6 -35 14 -61 16 -26 3 -53 9 -60 15 -7 6 -16 8 -19 4 -4 -3 -13 0 -22 7 -8 7 -22 9 -31 6 -10 -4 -25 1 -36 11 -10 9 -36 17 -57 17 -21 1 -45 7 -53 14 -8 6 -41 21 -72 31 -55 19 -56 19 -66 1z m1140 -224 c-63 -58 -156 -139 -172 -147 -15 -8 -18 -6 -18 11 0 11 3 19 8 18 4 -2 7 2 7 7 0 6 -3 9 -7 8 -5 -2 -8 22 -8 52 l0 54 73 4 c39 1 85 4 102 5 25 2 27 0 15 -12z m-1162 -731 c-16 -30 -31 -55 -34 -55 -2 0 -4 22 -4 49 0 51 2 53 57 60 6 0 -2 -24 -19 -54z m18 -560 c19 -32 33 -59 31 -61 -7 -7 -82 63 -85 80 -4 21 6 51 14 44 2 -3 20 -31 40 -63z"/>
 <path d="M2506 1201 c-4 -5 -2 -12 3 -15 5 -4 12 -2 15 3 4 5 2 12 -3 15 -5 4 -12 2 -15 -3z"/>
 <path d="M2555 1090 c-4 -6 -3 -16 3 -22 6 -6 12 -6 17 2 4 6 3 16 -3 22 -6 6 -12 6 -17 -2z"/>
 <path d="M2565 1030 c-4 -6 -3 -16 3 -22 6 -6 12 -6 17 2 4 6 3 16 -3 22 -6 6 -12 6 -17 -2z"/>
 <path d="M3218 943 c-23 -27 -39 -61 -31 -66 18 -10 51 13 56 40 7 36 -5 49 -25 26z"/>
 <path d="M3101 746 c-36 -51 -25 -72 11 -23 36 47 39 55 29 62 -5 3 -24 -15 -40 -39z"/>
 <path d="M3214 746 c-4 -10 -2 -22 4 -28 8 -8 13 -7 18 6 4 10 2 22 -4 28 -8 8 -13 7 -18 -6z"/>
 <path d="M2565 710 c-4 -6 -3 -16 3 -22 6 -6 12 -6 17 2 4 6 3 16 -3 22 -6 6 -12 6 -17 -2z"/>
 <path d="M3051 676 c-7 -8 -8 -17 -3 -20 6 -3 15 1 21 8 7 8 8 17 3 20 -6 3 -15 -1 -21 -8z"/>
 <path d="M3225 670 c-4 -6 -3 -16 3 -22 6 -6 12 -6 17 2 4 6 3 16 -3 22 -6 6 -12 6 -17 -2z"/>
 <path d="M3235 619 c-4 -6 -3 -15 3 -21 6 -6 8 -16 6 -23 -3 -7 -1 -16 5 -19 14 -9 25 14 13 26 -6 6 -8 16 -6 23 7 17 -12 29 -21 14z"/>
 <path d="M2996 611 c-4 -5 -2 -12 3 -15 5 -4 12 -2 15 3 4 5 2 12 -3 15 -5 4 -12 2 -15 -3z"/>
 <path d="M2555 600 c-4 -6 -3 -16 3 -22 6 -6 12 -6 17 2 4 6 3 16 -3 22 -6 6 -12 6 -17 -2z"/>
 <path d="M3265 510 c-4 -6 -3 -16 3 -22 6 -6 12 -6 17 2 4 6 3 16 -3 22 -6 6 -12 6 -17 -2z"/>
 <path d="M2881 496 c-7 -8 -8 -17 -3 -20 6 -3 15 1 21 8 7 8 8 17 3 20 -6 3 -15 -1 -21 -8z"/>
 <path d="M2705 391 c-7 -12 12 -24 25 -16 11 7 4 25 -10 25 -5 0 -11 -4 -15 -9z"/>
 <path d="M2645 371 c-7 -12 12 -24 25 -16 11 7 4 25 -10 25 -5 0 -11 -4 -15 -9z"/>
 </g>
<g id="layer5" fill="#a23b53" stroke="none">
 <path d="M3185 5170 c-8 -13 20 -24 41 -16 20 8 9 26 -16 26 -10 0 -22 -5 -25 -10z"/>
 <path d="M3440 4194 c-9 -10 -10 -18 -3 -25 8 -8 14 -5 22 9 13 25 -2 38 -19 16z"/>
 <path d="M4200 4184 c-9 -10 -10 -18 -3 -25 8 -8 14 -5 22 9 13 25 -2 38 -19 16z"/>
 <path d="M2621 4136 c-7 -8 -8 -17 -3 -20 6 -3 15 1 21 8 7 8 8 17 3 20 -6 3 -15 -1 -21 -8z"/>
 <path d="M5565 3850 c-3 -5 -3 -15 1 -21 3 -6 6 -157 6 -335 -1 -178 3 -326 8 -329 5 -3 1 -19 -7 -36 -11 -22 -12 -34 -5 -41 8 -8 14 -3 22 17 6 15 8 30 5 33 -2 3 0 11 6 19 6 7 8 13 4 13 -4 0 -2 7 5 15 7 9 10 18 7 22 -4 3 -2 12 4 19 6 8 9 20 6 29 -4 8 -1 17 4 21 6 3 8 20 5 38 -4 18 -3 35 0 39 9 9 9 241 0 255 -4 6 -4 22 0 35 3 14 1 28 -5 31 -5 4 -8 13 -4 21 3 9 0 21 -6 29 -6 7 -9 15 -6 18 7 7 -24 106 -35 113 -5 3 -11 1 -15 -5z"/>
 <path d="M5797 3043 c-4 -3 4 -19 19 -34 25 -27 26 -30 26 -166 0 -101 -5 -150 -16 -182 -19 -52 -5 -85 15 -35 25 65 40 126 34 144 -3 10 -2 21 3 24 11 7 7 158 -6 182 -16 29 -67 75 -75 67z"/>
 <path d="M5535 3030 c-4 -6 -3 -16 3 -22 6 -6 12 -6 17 2 4 6 3 16 -3 22 -6 6 -12 6 -17 -2z"/>
 <path d="M3725 2251 c-7 -12 12 -24 25 -16 11 7 4 25 -10 25 -5 0 -11 -4 -15 -9z"/>
 <path d="M4045 2131 c-7 -12 12 -24 25 -16 11 7 4 25 -10 25 -5 0 -11 -4 -15 -9z"/>
 <path d="M9606 2102 c-3 -6 1 -15 8 -21 8 -7 17 -8 20 -3 3 6 -1 15 -8 21 -8 7 -17 8 -20 3z"/>
 <path d="M4285 2051 c-7 -12 12 -24 25 -16 11 7 4 25 -10 25 -5 0 -11 -4 -15 -9z"/>
 <path d="M4385 2021 c-7 -12 12 -24 25 -16 11 7 4 25 -10 25 -5 0 -11 -4 -15 -9z"/>
 <path d="M4455 2001 c-6 -11 13 -26 22 -17 3 3 12 1 19 -5 7 -6 18 -8 24 -4 14 9 1 28 -16 21 -7 -3 -16 -1 -19 4 -8 13 -22 13 -30 1z"/>
 <path d="M4615 1961 c-7 -12 12 -24 25 -16 11 7 4 25 -10 25 -5 0 -11 -4 -15 -9z"/>
 <path d="M4765 1931 c-7 -12 12 -24 25 -16 11 7 4 25 -10 25 -5 0 -11 -4 -15 -9z"/>
 <path d="M4825 1921 c-7 -12 12 -24 25 -16 11 7 4 25 -10 25 -5 0 -11 -4 -15 -9z"/>
 <path d="M4895 1911 c-7 -12 12 -24 25 -16 11 7 4 25 -10 25 -5 0 -11 -4 -15 -9z"/>
 <path d="M5285 1910 c-4 -7 -21 -9 -45 -5 -23 4 -41 2 -45 -4 -3 -6 -30 -11 -60 -11 -30 0 -56 -3 -58 -7 -4 -7 -11 -205 -8 -226 0 -4 12 0 26 9 14 9 22 21 18 27 -3 5 -2 7 4 4 11 -7 139 102 135 115 -1 5 1 7 6 4 13 -8 67 56 67 79 0 22 -29 33 -40 15z"/>
 <path d="M5005 1900 c-8 -12 20 -24 35 -15 6 3 8 11 5 16 -8 12 -32 12 -40 -1z"/>
 <path d="M6446 1862 c-3 -6 1 -15 8 -21 8 -7 17 -8 20 -3 3 6 -1 15 -8 21 -8 7 -17 8 -20 3z"/>
 <path d="M5015 1636 c-18 -14 -24 -25 -17 -30 6 -3 23 4 38 17 36 31 17 43 -21 13z"/>
 <path d="M4932 1579 c-23 -17 -40 -35 -37 -40 4 -5 26 5 51 22 24 16 42 34 39 40 -8 11 -3 13 -53 -22z"/>
 <path d="M4827 1514 c-49 -32 -38 -52 12 -22 37 22 51 40 34 45 -4 1 -25 -9 -46 -23z"/>
 <path d="M4739 1462 c-13 -12 -18 -21 -12 -25 6 -4 21 1 34 11 13 12 18 21 12 25 -6 4 -21 -1 -34 -11z"/>
 <path d="M4565 1377 c-12 -10 -14 -16 -7 -21 15 -9 54 12 47 25 -8 12 -18 11 -40 -4z"/>
 <path d="M4480 1335 c-7 -8 -16 -12 -22 -9 -12 8 -39 -16 -32 -28 3 -5 16 -2 30 7 13 8 24 13 24 10 0 -3 9 -1 20 5 11 6 18 15 15 21 -9 13 -21 11 -35 -6z"/>
 <path d="M4115 1205 c-35 -13 -59 -27 -57 -34 1 -7 3 -45 3 -84 1 -77 13 -122 30 -112 6 4 8 13 5 20 -2 7 -2 16 2 20 4 4 7 10 8 13 2 14 48 108 70 144 32 51 15 60 -61 33z"/>
 <path d="M4058 975 c-9 -9 7 -60 18 -58 5 1 10 8 12 15 3 16 -21 52 -30 43z"/>
 <path d="M3724 936 c-8 -20 -1 -47 10 -46 5 1 18 -15 29 -35 12 -25 22 -34 29 -27 6 6 6 16 -1 28 -6 11 -17 36 -25 57 -15 38 -33 48 -42 23z"/>
 <path d="M3180 874 c-9 -10 -10 -18 -3 -25 8 -8 14 -5 22 9 13 25 -2 38 -19 16z"/>
 <path d="M4064 816 c-4 -10 -2 -22 4 -28 8 -8 13 -7 18 6 4 10 2 22 -4 28 -8 8 -13 7 -18 -6z"/>
 <path d="M3806 802 c-3 -6 1 -15 8 -21 8 -7 17 -8 20 -3 3 6 -1 15 -8 21 -8 7 -17 8 -20 3z"/>
 <path d="M3715 770 c-4 -6 -3 -16 3 -22 6 -6 12 -6 17 2 4 6 3 16 -3 22 -6 6 -12 6 -17 -2z"/>
 <path d="M4056 763 c-3 -3 -3 -10 0 -15 9 -14 10 -168 2 -168 -4 0 -10 5 -13 11 -4 6 -14 8 -22 5 -8 -3 -12 -2 -9 3 3 5 -1 14 -8 20 -9 8 -16 8 -20 2 -10 -15 91 -91 111 -84 11 4 14 2 9 -5 -7 -11 103 -92 132 -97 34 -5 31 7 -12 63 -24 31 -60 90 -80 130 -20 39 -41 72 -47 72 -6 0 -9 14 -7 31 2 24 -1 32 -14 34 -9 2 -19 1 -22 -2z"/>
 <path d="M3857 743 c-4 -6 13 -29 37 -52 24 -24 46 -39 49 -34 4 6 -13 29 -37 52 -24 24 -46 39 -49 34z"/>
 <path d="M3704 676 c-4 -10 -2 -22 4 -28 8 -8 13 -7 18 6 4 10 2 22 -4 28 -8 8 -13 7 -18 -6z"/>
 <path d="M3011 626 c-7 -8 -8 -17 -3 -20 6 -3 15 1 21 8 7 8 8 17 3 20 -6 3 -15 -1 -21 -8z"/>
 <path d="M3695 610 c-4 -6 -3 -16 3 -22 6 -6 12 -6 17 2 4 6 3 16 -3 22 -6 6 -12 6 -17 -2z"/>
 <path d="M3255 540 c-4 -6 -3 -16 3 -22 6 -6 12 -6 17 2 4 6 3 16 -3 22 -6 6 -12 6 -17 -2z"/>
 <path d="M3675 490 c-4 -6 -3 -16 3 -22 6 -6 12 -6 17 2 4 6 3 16 -3 22 -6 6 -12 6 -17 -2z"/>
 <path d="M3286 441 c-10 -16 13 -66 25 -54 6 6 6 19 0 36 -11 29 -16 32 -25 18z"/>
 <path d="M3645 370 c-4 -6 -3 -16 3 -22 6 -6 12 -6 17 2 4 6 3 16 -3 22 -6 6 -12 6 -17 -2z"/>
 <path d="M3630 314 c-9 -10 -10 -18 -3 -25 8 -8 14 -5 22 9 13 25 -2 38 -19 16z"/>
 <path d="M3571 186 c-7 -8 -8 -17 -3 -20 6 -3 15 1 21 8 7 8 8 17 3 20 -6 3 -15 -1 -21 -8z"/>
 <path d="M3387 174 c-3 -4 -2 -16 4 -26 8 -15 14 -17 22 -9 8 8 7 15 -4 26 -8 9 -18 13 -22 9z"/>
 <path d="M3451 79 c-18 -7 -22 -12 -13 -21 14 -14 67 6 57 22 -7 12 -12 12 -44 -1z"/>
 </g>
<g id="layer6" fill="#bf8e3d" stroke="none">
 <path d="M3779 4886 c-5 -22 -4 -33 4 -44 6 -7 7 -15 4 -19 -4 -3 -2 -12 5 -20 6 -7 8 -16 5 -20 -4 -3 -2 -12 4 -19 8 -10 26 -7 87 13 88 29 101 38 84 55 -8 8 -15 8 -28 -3 -12 -9 -15 -10 -10 -1 5 8 -2 16 -21 22 -15 6 -35 13 -43 17 -8 3 -26 7 -40 7 -14 1 -31 5 -37 9 -7 5 -14 6 -14 3z m121 -59 c24 -9 23 -10 -22 -25 -27 -9 -50 -14 -52 -11 -2 2 -6 17 -10 32 -7 28 -6 29 26 22 18 -4 44 -12 58 -18z"/>
 <path d="M2694 4869 c-3 -5 -11 -9 -17 -8 -7 1 -25 -3 -40 -9 -15 -7 -31 -11 -35 -10 -4 1 -20 -4 -35 -10 -16 -7 -32 -10 -37 -7 -4 3 -13 -2 -19 -9 -14 -16 -3 -26 32 -30 31 -4 129 -37 144 -48 9 -7 14 -5 18 6 3 9 8 24 12 34 3 9 5 21 4 26 -1 4 2 13 6 20 14 19 9 49 -10 52 -9 1 -20 -2 -23 -7z m1 -61 c-4 -18 -8 -34 -9 -35 -1 -1 -26 5 -56 15 l-53 17 54 17 c72 23 72 23 64 -14z"/>
 <path d="M3621 4690 c-40 -37 -69 -70 -64 -73 5 -3 39 20 74 52 l65 59 27 -24 c27 -23 27 -23 27 -164 0 -77 -3 -140 -7 -139 -5 0 -46 17 -93 38 -77 35 -108 42 -96 22 3 -4 45 -25 93 -46 48 -21 96 -45 105 -53 33 -28 38 -5 38 163 0 160 -1 165 -22 176 -13 6 -34 22 -48 34 l-25 23 -74 -68z"/>
 <path d="M2773 4707 l-43 -42 0 -157 c0 -161 5 -183 38 -156 16 14 114 58 137 62 5 1 25 10 43 19 32 17 32 18 32 95 l0 77 -39 32 c-45 37 -63 32 -26 -7 24 -25 26 -33 23 -99 l-3 -72 -88 -39 -88 -39 3 146 3 146 27 20 28 21 28 -27 c16 -15 31 -24 35 -21 6 6 -53 84 -63 83 -3 0 -24 -19 -47 -42z"/>
 <path d="M4476 4563 c-100 -4 -129 -13 -120 -38 3 -7 0 -16 -5 -20 -6 -3 -9 -11 -5 -16 3 -5 1 -16 -5 -23 -6 -7 -9 -20 -5 -29 3 -8 1 -18 -5 -21 -6 -4 -8 -13 -5 -20 3 -8 1 -17 -5 -20 -6 -4 -8 -13 -5 -20 3 -8 1 -17 -5 -20 -6 -4 -8 -13 -5 -20 3 -8 1 -17 -5 -20 -6 -4 -8 -13 -5 -20 3 -8 0 -17 -5 -21 -6 -3 -9 -11 -5 -16 3 -5 2 -15 -3 -22 -4 -7 -8 -21 -8 -32 0 -19 8 -20 155 -23 l155 -2 39 39 c21 21 34 41 28 44 -5 4 -22 -7 -37 -23 l-29 -30 -138 0 c-104 0 -138 3 -138 13 1 6 18 82 39 167 l38 155 96 3 96 3 71 -107 72 -106 -32 -33 c-17 -18 -28 -35 -22 -38 5 -4 25 11 45 31 l37 38 -85 127 c-47 70 -86 126 -88 125 -1 -1 -47 -4 -101 -5z"/>
 <path d="M1834 4438 c-43 -62 -84 -117 -91 -121 -11 -7 -5 -17 29 -45 24 -20 66 -58 94 -85 l51 -48 154 3 154 3 0 25 c0 14 -4 30 -8 37 -5 7 -6 17 -3 22 4 5 1 13 -5 16 -5 4 -8 13 -5 21 3 7 1 16 -5 20 -6 3 -8 12 -5 20 3 7 1 16 -5 20 -6 3 -8 12 -5 20 3 7 1 16 -5 20 -6 3 -8 12 -5 20 3 7 1 16 -5 20 -6 3 -8 12 -5 20 3 7 1 16 -5 20 -6 3 -8 12 -5 20 3 7 1 16 -5 20 -6 3 -8 12 -5 19 6 17 -20 40 -28 26 -4 -5 12 -82 34 -170 22 -88 40 -165 40 -171 0 -6 -50 -10 -142 -10 l-143 1 -68 62 -67 62 80 117 c44 64 76 119 71 122 -5 4 -44 -44 -87 -106z"/>
 <path d="M2765 4265 c-32 -53 -62 -98 -66 -101 -5 -2 22 -41 58 -84 l66 -80 61 1 c45 0 75 7 116 27 51 25 55 30 55 62 1 19 -3 40 -7 46 -5 7 -8 16 -7 20 1 5 -3 22 -10 38 -6 16 -9 31 -6 34 2 3 0 11 -7 19 -6 7 -8 16 -5 20 4 3 2 12 -4 20 -6 7 -8 13 -4 13 4 0 2 6 -4 14 -6 8 -10 20 -9 27 2 11 -17 15 -83 17 l-86 3 -58 -96z m237 -67 l34 -123 -40 -22 c-30 -16 -58 -22 -106 -22 l-65 -1 -47 60 c-27 32 -48 63 -48 67 0 4 21 42 47 85 l48 78 71 0 72 0 34 -122z"/>
 <path d="M3522 4347 c-7 -8 -9 -17 -5 -20 3 -4 1 -13 -5 -20 -7 -8 -9 -16 -7 -19 3 -3 0 -18 -6 -34 -7 -16 -11 -33 -10 -38 1 -4 -3 -14 -9 -20 -5 -7 -7 -15 -5 -18 3 -3 0 -18 -6 -34 -21 -52 -18 -64 25 -92 23 -15 44 -26 48 -27 3 0 10 -3 14 -7 4 -5 31 -8 59 -8 28 0 55 3 59 8 4 4 12 7 17 7 5 0 36 33 68 73 l58 73 -51 79 c-28 43 -56 86 -62 96 -6 10 -13 14 -17 8 -3 -6 16 -48 43 -93 28 -45 50 -87 50 -92 0 -6 -21 -36 -46 -66 l-45 -56 -66 2 c-81 3 -146 26 -139 50 41 137 66 245 58 253 -5 5 -13 3 -20 -5z"/>
 <path d="M4717 4181 c-54 -42 -97 -79 -95 -82 1 -4 -5 -16 -15 -27 -13 -14 -15 -22 -7 -27 8 -5 7 -12 -4 -24 -9 -10 -13 -21 -10 -24 4 -4 2 -13 -5 -20 -6 -8 -9 -21 -5 -30 3 -8 0 -18 -6 -22 -6 -4 -8 -15 -5 -25 3 -10 1 -21 -5 -25 -6 -4 -8 -15 -5 -25 3 -10 1 -21 -5 -25 -8 -5 -8 -11 0 -20 7 -9 6 -16 -5 -25 -8 -7 -12 -16 -9 -21 3 -5 0 -17 -6 -28 -7 -14 -7 -22 0 -26 8 -5 8 -11 0 -20 -7 -8 -7 -15 -1 -19 5 -4 12 -2 16 4 3 5 3 10 -1 10 -3 0 -1 6 5 13 6 8 13 31 15 53 2 21 6 46 10 54 11 28 46 213 41 218 -3 3 0 11 6 18 6 8 9 21 5 29 -4 11 22 36 89 86 52 38 99 68 104 64 16 -9 21 11 8 27 -10 13 -26 5 -110 -61z"/>
 <path d="M1532 4089 c-134 -138 -142 -148 -132 -173 5 -14 7 -26 3 -26 -3 0 2 -9 12 -20 11 -12 20 -26 21 -33 3 -21 65 -172 76 -184 8 -10 67 -13 235 -13 190 0 225 2 229 15 4 8 3 23 -2 33 -4 9 -8 22 -9 28 0 6 -6 18 -13 27 -9 11 -10 17 -2 22 8 5 6 13 -5 25 -11 12 -13 20 -5 25 8 5 8 10 0 20 -7 8 -9 19 -5 25 4 6 1 17 -5 25 -6 8 -9 19 -5 25 4 6 1 17 -5 25 -6 8 -9 18 -6 23 3 6 -1 15 -9 22 -11 9 -12 16 -5 25 7 9 6 16 -5 25 -10 9 -12 16 -5 25 7 8 2 19 -18 36 -27 25 -111 88 -167 125 l-30 20 -143 -147z m243 50 c80 -59 99 -84 96 -121 -1 -9 3 -19 9 -23 6 -3 8 -10 5 -15 -6 -10 24 -161 36 -176 5 -6 6 -14 3 -17 -4 -3 -3 -14 1 -24 4 -10 9 -35 11 -55 l4 -38 -205 0 -205 0 -15 33 c-45 104 -62 143 -62 147 -1 3 -9 24 -18 48 -13 31 -14 46 -6 56 6 7 7 17 3 21 -4 5 -2 5 4 2 6 -3 62 46 125 109 62 62 118 114 123 114 4 0 46 -28 91 -61z"/>
 <path d="M4847 4193 c-3 -5 36 -51 87 -102 52 -51 96 -89 99 -84 3 5 -36 51 -87 102 -52 51 -96 89 -99 84z"/>
 <path d="M4181 4024 c-44 -30 -85 -54 -90 -54 -19 0 -23 -22 -6 -40 11 -12 13 -20 5 -25 -8 -5 -8 -10 0 -20 7 -8 9 -19 5 -25 -4 -6 -1 -17 5 -25 6 -8 9 -19 5 -25 -4 -6 -1 -17 5 -25 6 -8 9 -18 6 -23 -3 -6 1 -15 9 -22 7 -6 12 -17 9 -25 -3 -7 0 -16 5 -20 6 -3 9 -10 6 -15 -3 -5 -1 -11 4 -14 5 -4 12 -2 15 3 4 5 2 12 -3 16 -6 3 -8 12 -5 19 3 8 0 17 -5 21 -6 3 -9 10 -6 15 6 10 -24 161 -36 176 -13 16 8 38 85 88 l69 46 31 -19 c17 -10 59 -35 94 -56 41 -24 67 -34 73 -28 10 10 -13 36 -35 39 -6 1 -46 22 -88 47 l-76 45 -81 -54z"/>
 <path d="M2219 4054 c-9 -8 -23 -16 -32 -18 -9 -1 -24 -9 -34 -17 -10 -9 -44 -30 -76 -48 -31 -18 -55 -37 -51 -42 6 -10 11 -8 126 57 43 24 82 44 88 44 6 0 44 -22 84 -49 l73 -50 -23 -103 c-13 -57 -22 -108 -20 -113 2 -6 -2 -18 -9 -28 -10 -14 -35 -17 -163 -19 -208 -4 -206 -22 2 -26 137 -2 161 0 177 14 13 12 16 21 9 29 -7 9 -6 16 5 25 8 7 12 16 9 22 -3 5 -1 14 4 21 5 7 10 20 11 30 0 9 2 25 2 35 1 9 6 22 11 29 5 7 7 17 3 23 -3 5 -3 16 1 22 21 34 10 51 -71 103 -46 29 -86 58 -89 64 -10 15 -19 14 -37 -5z"/>
 <path d="M5047 3983 c-3 -3 -1 -13 5 -23 9 -14 1 -43 -40 -146 -35 -85 -49 -131 -42 -138 7 -7 14 -6 22 2 7 7 8 12 4 12 -5 0 -1 11 8 25 9 14 14 25 10 25 -3 0 1 11 10 25 9 14 14 25 10 25 -3 0 1 11 10 25 9 14 14 25 11 25 -3 0 0 10 7 23 7 12 11 27 10 33 -1 6 5 17 13 24 8 7 15 18 15 25 0 15 -45 47 -53 38z"/>
 <path d="M2559 3953 c-6 -16 -18 -36 -26 -45 -9 -10 -13 -18 -9 -18 3 0 -3 -18 -14 -40 -17 -32 -20 -56 -18 -113 2 -40 8 -72 13 -72 6 0 13 36 16 80 4 57 13 97 32 138 l27 57 69 0 70 0 35 -59 c33 -53 36 -65 36 -133 0 -80 5 -94 27 -77 8 8 13 34 13 76 0 52 -4 70 -24 96 -13 18 -36 56 -51 85 l-27 52 -79 0 c-77 0 -80 -1 -90 -27z"/>
 <path d="M3731 3894 c-47 -78 -51 -91 -51 -148 0 -35 5 -67 12 -74 13 -13 309 -18 321 -5 4 3 2 12 -4 20 -9 10 -46 13 -150 13 l-139 0 0 68 c0 40 5 76 13 87 40 58 67 114 58 119 -5 4 -32 -32 -60 -80z"/>
 <path d="M3926 3972 c-3 -5 10 -41 29 -81 40 -83 67 -89 31 -6 -14 29 -22 55 -20 58 2 2 -4 12 -15 21 -10 10 -22 13 -25 8z"/>
 <path d="M3333 3948 c-4 -7 -22 -42 -39 -77 l-32 -65 27 -35 c15 -20 40 -53 55 -74 47 -64 47 -30 0 37 -24 35 -44 69 -44 75 0 6 10 35 22 66 l23 54 142 3 c191 4 190 22 -1 26 -109 2 -147 -1 -153 -10z"/>
 <path d="M2872 3928 c-8 -8 -12 -51 -12 -120 0 -105 1 -109 24 -118 13 -5 27 -14 31 -20 3 -5 10 -8 15 -5 4 3 13 -1 19 -9 8 -9 40 -14 105 -15 l95 -2 40 60 c23 33 37 63 31 66 -5 3 -24 -17 -42 -44 l-33 -51 -76 0 c-56 0 -89 6 -123 20 l-46 21 0 109 c0 108 -6 130 -28 108z"/>
 <path d="M3176 3931 c-3 -5 8 -40 25 -78 17 -37 30 -69 30 -70 -1 -2 2 -3 7 -3 13 1 1 72 -16 92 -6 8 -13 25 -15 38 -4 26 -21 37 -31 21z"/>
 <path d="M3566 3704 c-32 -17 -45 -29 -38 -36 12 -12 116 38 107 52 -8 14 -13 13 -69 -16z"/>
 </g>
<g id="layer7" fill="#c09041" stroke="none">
 <path d="M3779 4897 c-6 -18 -5 -38 1 -42 5 -3 7 -12 4 -19 -3 -8 0 -17 5 -21 6 -3 9 -11 5 -16 -3 -5 -1 -15 4 -22 9 -11 12 -18 12 -32 0 -2 42 10 93 28 59 21 92 38 92 47 0 15 -58 39 -105 45 -14 1 -38 8 -55 14 -45 17 -55 21 -56 18z"/>
 <path d="M2705 4870 c-3 -5 -12 -7 -19 -4 -8 3 -17 0 -21 -5 -3 -6 -10 -9 -15 -6 -5 3 -21 0 -37 -7 -15 -6 -34 -10 -40 -9 -7 1 -22 -3 -33 -9 -35 -19 -8 -46 74 -73 73 -25 75 -25 92 -6 9 11 14 22 11 26 -4 3 -2 12 3 19 6 6 10 16 8 20 -1 5 3 19 10 32 7 12 11 22 10 23 -23 6 -39 6 -43 -1z"/>
 <path d="M3613 4691 l-73 -66 0 -81 c0 -53 4 -85 13 -91 26 -22 201 -93 208 -86 5 5 9 82 9 172 l2 164 -33 26 c-18 14 -38 26 -43 27 -6 1 -44 -28 -83 -65z"/>
 <path d="M2767 4710 l-29 -26 1 -154 c1 -110 6 -159 15 -168 10 -10 31 -4 110 31 l98 43 0 94 0 95 -62 55 c-34 31 -72 56 -83 56 -12 0 -34 -12 -50 -26z"/>
 <path d="M1825 4437 c-42 -61 -78 -119 -80 -128 -2 -12 22 -41 71 -84 l74 -67 162 2 c158 1 194 8 171 31 -6 6 -9 17 -7 24 3 7 1 16 -5 19 -6 4 -8 13 -5 20 3 8 1 17 -5 20 -6 4 -8 13 -5 20 3 8 1 17 -5 20 -6 4 -8 13 -5 20 3 8 1 17 -5 20 -6 4 -8 13 -5 20 3 8 1 17 -5 20 -6 4 -8 13 -5 20 3 8 1 17 -5 20 -6 4 -8 13 -5 20 3 8 0 17 -5 21 -6 3 -9 11 -5 16 3 5 1 15 -4 22 -6 7 -12 17 -14 22 -2 6 -51 11 -114 12 l-112 1 -77 -111z"/>
 <path d="M4366 4537 c-10 -8 -16 -19 -12 -25 3 -6 2 -14 -4 -17 -6 -4 -8 -15 -5 -25 3 -10 1 -21 -5 -25 -6 -4 -9 -13 -6 -21 3 -7 1 -16 -5 -20 -6 -3 -8 -12 -5 -20 3 -7 1 -16 -5 -20 -6 -3 -8 -12 -5 -20 3 -7 1 -16 -5 -20 -6 -3 -8 -12 -5 -20 3 -7 1 -16 -5 -20 -6 -3 -8 -12 -5 -20 3 -7 1 -16 -5 -20 -6 -3 -8 -12 -5 -19 2 -7 -1 -18 -7 -24 -23 -23 12 -30 166 -31 l158 -2 80 74 80 73 -78 115 -79 115 -109 3 c-83 2 -115 0 -129 -11z"/>
 <path d="M3529 4365 c-4 -15 -7 -26 -9 -32 -2 -5 -4 -12 -4 -18 -1 -5 -8 -20 -15 -33 -7 -13 -10 -30 -7 -37 3 -8 1 -17 -5 -20 -5 -4 -9 -12 -8 -18 1 -7 -3 -25 -9 -40 -7 -16 -10 -32 -7 -37 3 -5 1 -11 -5 -15 -19 -12 -3 -50 29 -69 25 -14 50 -18 101 -17 38 1 71 -3 75 -9 3 -5 12 -10 19 -10 18 0 132 147 128 166 -2 8 -27 54 -56 102 l-52 87 -87 3 c-48 1 -88 0 -88 -3z"/>
 <path d="M2785 4310 c-12 -19 -34 -55 -50 -80 -41 -64 -38 -85 20 -158 l51 -64 85 0 c68 -1 93 4 127 21 51 26 57 38 41 77 -7 16 -11 33 -10 38 1 4 -3 14 -9 20 -5 7 -7 15 -5 18 3 3 0 18 -6 34 -7 16 -13 34 -14 39 -1 6 -3 13 -5 18 -1 4 -4 12 -5 17 -1 6 -4 13 -5 18 -1 4 -3 13 -4 20 -1 10 -25 14 -95 15 l-94 2 -22 -35z"/>
 <path d="M4700 4176 c-62 -46 -95 -78 -96 -91 -1 -11 -6 -31 -11 -45 -6 -14 -9 -36 -8 -50 2 -14 -1 -30 -7 -37 -5 -7 -7 -17 -3 -23 4 -6 1 -17 -5 -25 -6 -8 -9 -19 -5 -25 4 -6 1 -18 -6 -26 -6 -8 -9 -17 -6 -21 4 -3 2 -12 -4 -19 -6 -8 -9 -20 -6 -29 4 -8 2 -17 -4 -21 -6 -3 -8 -13 -5 -21 4 -9 2 -21 -3 -27 -5 -6 -11 -22 -13 -36 l-3 -25 234 0 233 0 50 125 c28 69 51 140 52 159 2 30 -11 47 -128 169 -71 75 -137 137 -146 137 -9 1 -58 -30 -110 -69z"/>
 <path d="M1529 4093 l-149 -149 55 -134 c30 -74 58 -141 62 -148 6 -11 55 -13 228 -12 121 0 223 4 227 8 14 14 16 80 3 105 -7 14 -11 28 -8 31 3 3 2 13 -2 23 -5 10 -7 22 -6 27 1 4 -3 14 -10 22 -6 7 -8 18 -4 24 4 6 2 16 -3 23 -6 7 -9 24 -7 39 2 14 -3 38 -10 51 -7 14 -11 28 -8 31 3 3 2 13 -2 23 -5 10 -7 21 -7 26 2 6 -155 127 -196 151 -10 6 -59 -37 -163 -141z"/>
 <path d="M4174 4025 c-94 -63 -108 -82 -89 -118 7 -14 11 -28 8 -31 -3 -3 0 -12 6 -20 7 -8 10 -20 6 -26 -4 -6 -1 -17 5 -25 6 -8 9 -19 5 -25 -3 -5 -3 -15 1 -21 3 -6 8 -29 10 -51 1 -22 7 -45 12 -50 4 -4 82 -7 173 -6 l164 3 3 151 3 152 -98 57 c-54 31 -105 58 -114 60 -9 2 -52 -21 -95 -50z"/>
 <path d="M2117 4002 l-95 -53 -1 -144 c-1 -79 2 -146 7 -149 15 -9 332 -8 334 1 1 4 7 19 14 32 7 13 11 36 9 52 -2 16 0 31 6 34 5 4 7 11 3 16 -3 5 0 16 6 24 6 8 9 19 5 25 -4 6 -1 17 5 25 6 8 9 19 6 24 -4 5 -2 12 3 16 5 3 9 14 8 25 -2 27 -150 125 -188 125 -15 0 -70 -24 -122 -53z"/>
 <path d="M3757 3953 c-61 -97 -77 -132 -67 -138 5 -3 10 -33 10 -65 0 -32 4 -61 8 -64 5 -3 76 -6 158 -7 l149 -1 3 75 c3 69 0 80 -35 153 l-39 79 -81 3 -82 3 -24 -38z"/>
 <path d="M2528 3900 c-25 -56 -30 -77 -30 -155 l0 -90 158 -3 c160 -3 189 3 165 32 -7 9 -11 42 -10 88 1 67 -1 77 -34 131 l-35 59 -92 1 -93 2 -29 -65z"/>
 <path d="M3328 3952 c-24 -28 -51 -99 -51 -135 -1 -25 12 -54 42 -101 l43 -66 84 0 c74 0 92 4 145 30 l60 31 -3 120 -3 121 -138 -1 c-84 -1 -144 2 -151 8 -9 8 -17 6 -28 -7z"/>
 <path d="M2865 3940 c-4 -6 -2 -17 5 -25 7 -8 10 -52 9 -121 l-2 -108 44 -19 c33 -14 69 -18 143 -19 l99 0 50 72 50 72 -35 76 -34 77 -161 3 c-107 2 -164 -1 -168 -8z"/>
 </g>

</svg>