<?xml version="1.0" standalone="no"?><!DOCTYPE svg PUBLIC "-//W3C//DTD SVG 1.1//EN" "http://www.w3.org/Graphics/SVG/1.1/DTD/svg11.dtd"><svg t="1491027374201" class="icon" style="" viewBox="0 0 1024 1024" version="1.1" xmlns="http://www.w3.org/2000/svg" p-id="4835" xmlns:xlink="http://www.w3.org/1999/xlink" width="400" height="400"><defs><style type="text/css"></style></defs><path d="M790.11634 63.581699 219.769935 63.581699c-5.135948 0-10.257516 0.427451-15.189542 1.291503-44.061438 7.269281-77.654902 45.345098-77.654902 91.552941l0 712.823529c0 46.207843 33.593464 84.270588 77.654902 91.560784 4.932026 0.862745 10.047059 1.28366 15.189542 1.28366l570.347712 0c59.033987 0 106.960784-47.934641 106.960784-106.96732L897.078431 170.542484C897.077124 111.508497 849.150327 63.581699 790.11634 63.581699zM276.677124 288.210458c0-5.984314 4.700654-10.69281 10.699346-10.69281l470.640523 0c6.005229 0 10.699346 4.70719 10.699346 10.69281l0 21.392157c0 5.992157-4.694118 10.69281-10.699346 10.69281l-470.640523 0c-5.992157 0-10.699346-4.700654-10.699346-10.69281L276.677124 288.210458zM276.677124 416.569935c0-5.992157 4.700654-10.699346 10.699346-10.699346l470.640523 0c6.005229 0 10.699346 4.70719 10.699346 10.699346l0 21.392157c0 5.992157-4.694118 10.69281-10.699346 10.69281l-470.640523 0c-5.992157 0-10.699346-4.700654-10.699346-10.69281L276.677124 416.569935zM856.643137 812.342484c0 59.026144-47.913725 106.960784-106.960784 106.960784L244.592157 919.303268c-14.543791 0-28.45098-4.286275-40.006536-11.766013-20.956863-13.267974-34.862745-36.581699-34.862745-63.117647l0-21.392157c0-26.528105 13.905882-49.843137 34.862745-63.103268 11.555556-7.49281 25.461438-11.780392 40.006536-11.780392l612.05098 0L856.643137 812.342484z" p-id="4836" fill="#000000"></path></svg>