<?xml version="1.0" standalone="no"?><!DOCTYPE svg PUBLIC "-//W3C//DTD SVG 1.1//EN" "http://www.w3.org/Graphics/SVG/1.1/DTD/svg11.dtd"><svg t="1492153313779" class="icon" style="" viewBox="0 0 1024 1024" version="1.1" xmlns="http://www.w3.org/2000/svg" p-id="2553" xmlns:xlink="http://www.w3.org/1999/xlink" width="200" height="200"><defs><style type="text/css"></style></defs><path d="M513.896 3.796c-281.72 0-510.1 228.38-510.1 510.103 0 281.721 228.38 510.101 510.1 510.101C795.619 1024 1024 795.62 1024 513.899 1024 232.177 795.619 3.796 513.896 3.796zM785.908 704.72c0 51.956-42.118 94.075-94.075 94.075s-94.075-42.119-94.075-94.075c0-15.782 3.893-30.654 10.76-43.716L385.216 418.922a93.531 93.531 0 0 1-43.587 13.889v178.063c48.908 3.355 87.542 44.086 87.542 93.847 0 51.956-42.119 94.075-94.075 94.075-51.957 0-94.076-42.119-94.076-94.075 0-46.157 33.241-84.547 77.09-92.543V431.354c-43.55-8.236-76.489-46.481-76.489-92.427 0-51.957 42.119-94.076 94.076-94.076 51.957 0 94.075 42.119 94.075 94.076 0 25.299-9.989 48.263-26.235 65.17l218.808 237.208c13.863-15.183 32.638-25.802 53.809-29.354V431.594c-44.492-7.465-78.396-46.153-78.396-92.767 0-51.957 42.118-94.076 94.075-94.076s94.075 42.119 94.075 94.076c0 49.316-37.947 89.763-86.235 93.748v178.397c48.288 3.984 86.235 44.431 86.235 93.748z" fill="#000000" p-id="2554"></path></svg>