<?xml version="1.0" standalone="no"?><!DOCTYPE svg PUBLIC "-//W3C//DTD SVG 1.1//EN" "http://www.w3.org/Graphics/SVG/1.1/DTD/svg11.dtd"><svg t="1493091943593" class="icon" style="" viewBox="0 0 1024 1024" version="1.1" xmlns="http://www.w3.org/2000/svg" p-id="1947" id="mx_n_1493091943596" xmlns:xlink="http://www.w3.org/1999/xlink" width="24" height="24"><defs><style type="text/css"></style></defs><path d="M799.531646 758.043742c-1.029446 0-1.685385-0.008186-1.936095-0.01535l1.076518-48.246841c17.972327 0.157589 70.715575-4.555759 96.614431-30.745235 11.358699-11.491729 16.613376-26.070772 16.063861-44.585451-2.254344-76.493162-131.039475-99.375312-132.340097-99.595322-9.972119-1.704828-17.84339-9.450233-19.681248-19.401886-1.841951-9.94449 2.702552-19.99131 11.405771-25.151843 4.995781-3.094478 30.234605-20.611433 18.070564-50.704822-15.168468-37.508265-69.718875-23.37743-70.279646-23.235191-7.226588 1.963725-14.980179 0.400113-20.933775-4.16281-5.950526-4.563946-9.437953-11.641131-9.437953-19.142989-0.004093-0.918929-1.252527-98.165764-68.178799-133.859707-90.385567-48.230468-193.558367 6.055926-225.929636 49.974182-38.698371 52.495608-36.141128 128.015605-36.110429 128.769782 0.01228 0.322341 0.019443 0.64366 0.019443 0.966001l0 270.759657 389.509225 0 0 48.26219-413.640832 0c-13.326517 0-24.130583-10.800997-24.130583-24.130583L309.692365 439.320701c-0.26299-8.459672-1.708921-94.733595 45.50438-158.791539 46.985104-63.736627 176.395476-123.17639 287.490713-63.924915 66.780963 35.623335 85.986373 108.872616 91.505064 148.934031 35.104519-1.64957 80.350003 8.954953 99.359962 55.975872 12.418844 30.728862 6.630001 56.863079-4.940522 76.438926 50.375318 16.463973 128.612193 54.884005 130.984217 135.069255 0.942465 32.048927-9.198499 58.999742-30.140461 80.099293C886.818641 756.071831 812.755832 758.043742 799.531646 758.043742z" p-id="1948"></path><path d="M260.361843 753.755066c-67.828828-0.660032-196.107423-34.69622-196.107423-158.752654 0-41.702798 13.785981-76.493162 40.980343-103.396905 56.659441-56.078203 151.541415-55.69344 155.614174-55.69344l-0.502443 48.26219 0.251733-24.130583-0.207731 24.130583c-0.64059 0.01535-79.140455-0.047072-121.338532 41.860387-17.854647 17.736966-26.53433 40.296775-26.53433 68.967768 0 107.278305 142.30403 110.411669 148.359956 110.490463L260.361843 753.755066z" p-id="1949"></path><path d="M407.135674 408.269497l147.488099 0 0 48.26219-147.488099 0 0-48.26219Z" p-id="1950"></path><path d="M407.135674 504.016165l228.027413 0 0 48.26219-228.027413 0 0-48.26219Z" p-id="1951"></path><path d="M407.135674 599.762833l294.418496 0 0 48.26219-294.418496 0 0-48.26219Z" p-id="1952"></path></svg>