<?xml version="1.0" standalone="no"?><!DOCTYPE svg PUBLIC "-//W3C//DTD SVG 1.1//EN" "http://www.w3.org/Graphics/SVG/1.1/DTD/svg11.dtd"><svg t="1493092691390" class="icon" style="" viewBox="0 0 1024 1024" version="1.1" xmlns="http://www.w3.org/2000/svg" p-id="2725" xmlns:xlink="http://www.w3.org/1999/xlink" width="24" height="24"><defs><style type="text/css"></style></defs><path d="M767.143493 767.144004l126.889969 0 0 126.889969-126.889969 0 0-126.889969Z" p-id="2726"></path><path d="M830.588477 125.190257c-389.581879 0-705.398732 315.816852-705.398732 705.398732 0 21.38403 0.952698 42.544979 2.816139 63.444984l64.077388 0c-2.046612-20.966521-3.078105-42.125423-3.078105-63.444984 0-86.641289 16.954137-170.657798 50.392714-249.713318 16.074094-38.003546 35.972283-74.661444 59.141982-108.957551 22.960944-33.986045 49.331545-65.947991 78.381162-94.996584 29.048593-29.048593 61.010539-55.419194 94.996584-78.380138 34.296107-23.169699 70.954005-43.067888 108.957551-59.141982 79.056544-33.437553 163.072029-50.392714 249.713318-50.392714 21.319561 0 42.478464 1.031493 63.444984 3.078105l0-64.077388C873.133456 126.142955 851.972507 125.190257 830.588477 125.190257z" p-id="2727"></path><path d="M333.94421 830.588989c0 21.494547 1.366114 42.669822 4.015454 63.444984l64.393589 0c-3.052522-20.85805-4.593622-42.031279-4.593622-63.444984 0-58.459437 11.435447-115.137297 33.987069-168.45769 21.796422-51.532677 53.014424-97.828073 92.784196-137.598868 39.770795-39.770795 86.065168-70.987774 137.598868-92.784196 53.320393-22.552645 109.998253-33.987069 168.45769-33.987069 21.413706 0 42.586934 1.541099 63.444984 4.593622L894.032438 337.960175c-20.775162-2.64934-41.950438-4.015454-63.444984-4.015454C556.298414 333.944721 333.94421 556.298925 333.94421 830.588989z" p-id="2728"></path><path d="M560.263725 830.588989c0 21.852704 2.611477 43.093471 7.506974 63.444984l66.201771 0c-6.504134-20.233833-9.893324-41.577954-9.893324-63.444984 0-55.160297 21.48022-107.020432 60.484559-146.023748 39.003316-39.004339 90.863451-60.484559 146.023748-60.484559 21.86703 0 43.211151 3.38919 63.444984 9.893324l0-66.201771c-20.351514-4.895497-41.59228-7.506974-63.444984-7.506974C681.291173 560.264237 560.263725 681.292708 560.263725 830.588989z" p-id="2729"></path></svg>