<?xml version="1.0" standalone="no"?><!DOCTYPE svg PUBLIC "-//W3C//DTD SVG 1.1//EN" "http://www.w3.org/Graphics/SVG/1.1/DTD/svg11.dtd"><svg t="1489754074613" class="icon" style="" viewBox="0 0 1024 1024" version="1.1" xmlns="http://www.w3.org/2000/svg" p-id="1429" xmlns:xlink="http://www.w3.org/1999/xlink" width="200" height="200"><defs><style type="text/css"></style></defs><path d="M640 598.016q107.989333 0 224.981333 47.018667t116.992 123.008l0 86.016-683.989333 0 0-86.016q0-75.989333 116.992-123.008t224.981333-47.018667zM256 425.984l128 0 0 86.016-128 0 0 128-86.016 0 0-128-128 0 0-86.016 128 0 0-128 86.016 0 0 128zM640 512q-70.016 0-120.021333-50.005333t-50.005333-120.021333 50.005333-121.002667 120.021333-50.986667 120.021333 50.986667 50.005333 121.002667-50.005333 120.021333-120.021333 50.005333z" p-id="1430"></path></svg>