<?xml version="1.0" standalone="no"?><!DOCTYPE svg PUBLIC "-//W3C//DTD SVG 1.1//EN" "http://www.w3.org/Graphics/SVG/1.1/DTD/svg11.dtd"><svg t="1489912811105" class="icon" style="" viewBox="0 0 1024 1024" version="1.1" xmlns="http://www.w3.org/2000/svg" p-id="2666" xmlns:xlink="http://www.w3.org/1999/xlink" width="200" height="200"><defs><style type="text/css"></style></defs><path d="M509.29796 631.459742c-42.497906-34.648125-91.552136-81.248466-134.022413-133.865847C345.481987 460.72622 319.12162 421.999197 346.333378 394.785392L155.331229 204.196659c-27.857465 34.725896-89.536222 200.090131 174.865633 470.819089C608.800161 960.304306 788.494777 899.243625 819.42523 867.101577L633.172245 681.005159C607.148545 706.978716 573.636291 683.844833 509.29796 631.459742zM886.627794 758.976998l0-0.183172c0 0-145.30334-144.915507-145.379065-145.018861-11.516288-11.463076-29.897937-11.257391-41.336454 0.103354l-52.693106 52.720735 186.741102 186.613188c0 0 52.720735-52.564169 52.667523-52.617381l0.130983-0.102331C898.839931 788.407284 897.600707 770.026658 886.627794 758.976998zM413.460218 327.814094l0-0.104377c12.056594-12.133342 10.94733-30.490431 0-41.463344l0-0.154519c0 0-149.512199-149.176554-149.58997-149.228743-11.515265-11.539824-29.92352-11.256368-41.335431 0.052189l-52.66957 52.771901L360.739483 380.431475C360.739483 380.431475 413.460218 327.916425 413.460218 327.814094z" p-id="2667"></path></svg>