<?xml version="1.0" standalone="no"?><!DOCTYPE svg PUBLIC "-//W3C//DTD SVG 1.1//EN" "http://www.w3.org/Graphics/SVG/1.1/DTD/svg11.dtd"><svg t="1493093061360" class="icon" style="" viewBox="0 0 1024 1024" version="1.1" xmlns="http://www.w3.org/2000/svg" p-id="7091" xmlns:xlink="http://www.w3.org/1999/xlink" width="40" height="40"><defs><style type="text/css"></style></defs><path d="M747.401143 345.929143 371.117714 346.642286C356.873143 346.669714 344.109714 354.230857 338.962286 365.659429 337.435429 369.051429 336.493714 372.745143 336.493714 376.722286L336.365714 445.476571 336.301714 481.033143 336.219429 525.293714 336.155429 560.850286 336.009143 638.372571C336.009143 639.168 336.210286 639.890286 336.274286 640.667429 337.618286 656.905143 352.969143 668.452571 370.624 668.416L746.907429 667.702857C765.376 667.666286 781.494857 655.049143 781.531429 637.632L782.034286 375.981714C782.043429 358.509714 765.897143 345.892571 747.401143 345.929143L747.401143 345.929143 747.401143 345.929143ZM754.084571 637.577143C754.084571 637.531429 753.938286 637.796571 753.206857 638.372571 751.762286 639.506286 749.467429 640.265143 746.843429 640.274286L370.56 640.987429C367.945143 640.996571 365.677714 640.246857 364.251429 639.131429 363.547429 638.582857 363.419429 638.354286 363.419429 638.418286L363.593143 548.534857C367.515429 548.635429 371.456 547.126857 374.253714 543.945143L447.670857 460.489143 576.310857 606.838857C581.769143 613.046857 591.442286 613.056 596.909714 606.838857L670.326857 523.382857 743.387429 606.518857C746.203429 609.718857 750.180571 611.236571 754.130286 611.108571L754.084571 637.577143 754.084571 637.577143 754.084571 637.577143ZM789.604571 261.101714 278.829714 261.101714C238.491429 261.101714 205.686857 293.851429 205.686857 334.253714L205.686857 365.659429 205.686857 411.373714 167.332571 411.373714C160.713143 411.373714 155.419429 416.731429 155.419429 423.350857 155.419429 430.006857 160.749714 435.328 167.332571 435.328L205.686857 435.328 205.686857 445.485714 205.686857 481.042286 205.686857 491.2 167.332571 491.2C160.713143 491.2 155.419429 496.557714 155.419429 503.177143 155.419429 509.833143 160.749714 515.154286 167.332571 515.154286L205.686857 515.154286 205.686857 525.312 205.686857 560.868571 205.686857 571.026286 167.332571 571.026286C160.713143 571.026286 155.419429 576.384 155.419429 583.003429 155.419429 589.659429 160.749714 594.980571 167.332571 594.980571L205.686857 594.980571 205.686857 640.694857 205.686857 682.852571C205.686857 723.346286 238.436571 756.004571 278.829714 756.004571L789.595429 756.004571C829.933714 756.004571 862.738286 723.254857 862.738286 682.852571L862.738286 334.253714C862.747429 293.76 829.997714 261.101714 789.604571 261.101714L789.604571 261.101714ZM754.194286 577.270857 702.427429 518.363429 680.630857 493.558857C675.172571 487.341714 665.499429 487.341714 660.032 493.549714L638.208 518.354286 586.614857 577.005714 457.974857 430.656C452.516571 424.448 442.843429 424.438857 437.376 430.656L363.648 514.459429 363.913143 376.758857C363.913143 376.804571 364.059429 376.530286 364.8 375.954286 366.244571 374.820571 368.539429 374.061714 371.163429 374.052571L575.579429 373.668571 739.126857 373.357714 747.446857 373.339429C750.052571 373.330286 752.329143 374.08 753.746286 375.195429 754.450286 375.753143 754.578286 375.981714 754.578286 375.917714L754.194286 577.270857 754.194286 577.270857ZM835.318857 682.825143C835.318857 708.059429 814.811429 728.548571 789.604571 728.548571L278.829714 728.548571C253.549714 728.548571 233.115429 708.132571 233.115429 682.825143L233.115429 640.667429 233.115429 594.953143 292.114286 594.953143C298.733714 594.953143 304.027429 589.595429 304.027429 582.976 304.027429 576.32 298.697143 570.998857 292.114286 570.998857L233.115429 570.998857 233.115429 560.841143 233.115429 525.284571 233.115429 515.126857 292.114286 515.126857C298.733714 515.126857 304.027429 509.769143 304.027429 503.149714 304.027429 496.493714 298.697143 491.172571 292.114286 491.172571L233.115429 491.172571 233.115429 481.014857 233.115429 445.458286 233.115429 435.300571 292.114286 435.300571C298.733714 435.300571 304.027429 429.942857 304.027429 423.323429 304.027429 416.667429 298.697143 411.346286 292.114286 411.346286L233.115429 411.346286 233.115429 365.632 233.115429 334.226286C233.115429 308.992 253.622857 288.502857 278.829714 288.502857L789.595429 288.502857C814.875429 288.502857 835.309714 308.918857 835.309714 334.226286L835.309714 682.825143 835.318857 682.825143 835.318857 682.825143ZM666.075429 402.194286C646.756571 397.412571 627.190857 409.078857 622.372571 428.233143 617.554286 447.405714 629.312 466.797714 648.630857 471.579429 667.949714 476.361143 687.515429 464.704 692.333714 445.531429 697.152 426.377143 685.394286 406.976 666.075429 402.194286L666.075429 402.194286Z" p-id="7092" fill="#000000"></path></svg>