<?xml version="1.0" standalone="no"?><!DOCTYPE svg PUBLIC "-//W3C//DTD SVG 1.1//EN" "http://www.w3.org/Graphics/SVG/1.1/DTD/svg11.dtd"><svg t="1493092882315" class="icon" style="" viewBox="0 0 1024 1024" version="1.1" xmlns="http://www.w3.org/2000/svg" p-id="3769" xmlns:xlink="http://www.w3.org/1999/xlink" width="40" height="40"><defs><style type="text/css"></style></defs><path d="M744.157 383.559c-19.015-26.556-50.377-44.108-85.833-44.108-37.205 0-69.69 19.053-88.375 47.73-29.876-38.79-76.854-63.976-129.938-63.976-71.836 0-132.513 45.902-154.301 109.748-70.35 4.437-125.977 62.117-125.977 132.781 0 71.806 57.442 130.171 129.41 132.911l431.509 0.326c88.705 0 160.508-71.056 160.508-158.717 0-79.669-59.489-145.472-137.003-156.695z m-293.765 93.668l-106.749 49.905 106.749 49.372v22.951l-138.24-62.982v-19.215l138.24-63.249v23.218z m42.434 173.468h-24.019l80.863-226.309h24.019l-80.863 226.309z m235.915-114.222l-138.24 62.982v-22.951l106.749-49.372-106.749-49.905v-23.218l138.24 63.249v19.215z" fill="#050809" p-id="3770"></path></svg>