<?xml version="1.0" standalone="no"?><!DOCTYPE svg PUBLIC "-//W3C//DTD SVG 1.1//EN" "http://www.w3.org/Graphics/SVG/1.1/DTD/svg11.dtd"><svg t="1492151864127" class="icon" style="" viewBox="0 0 1024 1024" version="1.1" xmlns="http://www.w3.org/2000/svg" p-id="1689" xmlns:xlink="http://www.w3.org/1999/xlink" width="200" height="200"><defs><style type="text/css"></style></defs><path d="M509.035994 176.646186c-139.327232 0-252.260327 110.636796-252.260327 247.105934 0 136.468115 112.933095 247.103888 252.260327 247.103888 139.315976 0 252.254188-110.635773 252.254188-247.103888C761.235946 287.281959 648.351969 176.646186 509.035994 176.646186L509.035994 176.646186 509.035994 176.646186 509.035994 176.646186zM217.727325 518.64535 217.727325 290.482861c-3.189645 0-6.385431 0.107447-9.467629 0.384763 51.707662-112.263853 166.82961-190.466959 300.777321-190.466959 133.941572 0 249.116731 78.203106 300.766065 190.466959-3.136433-0.218988-6.27389-0.384763-9.464559-0.384763l0 228.167606c64.308655 0 116.519784-51.092655 116.519784-114.056686 0-42.799782-24.087605-80.051197-59.657728-99.604532C807.114856 163.761738 670.368402 62.365396 509.035994 62.365396c-161.339572 0-298.03179 101.396341-348.170724 242.61976-35.574217 19.4991-59.661821 56.808844-59.661821 99.549274C101.203448 467.557812 153.360342 518.64535 217.727325 518.64535L217.727325 518.64535 217.727325 518.64535 217.727325 518.64535zM760.732479 649.455605c-65.935712 60.275805-154.394393 97.190553-251.696486 97.190553-97.136318 0-185.484482-36.745902-251.365958-96.853885C139.803581 709.171662 62.385351 814.995849 62.385351 958.684412l896.320039 0C958.70539 814.716486 879.886253 708.780759 760.732479 649.455605L760.732479 649.455605 760.732479 649.455605 760.732479 649.455605zM760.732479 649.455605" p-id="1690" fill="#000000"></path></svg>