<?xml version="1.0" standalone="no"?><!DOCTYPE svg PUBLIC "-//W3C//DTD SVG 1.1//EN" "http://www.w3.org/Graphics/SVG/1.1/DTD/svg11.dtd"><svg t="1491027036992" class="icon" style="" viewBox="0 0 1024 1024" version="1.1" xmlns="http://www.w3.org/2000/svg" p-id="3377" xmlns:xlink="http://www.w3.org/1999/xlink" width="400" height="400"><defs><style type="text/css"></style></defs><path d="M972.530218 554.813288 962.536541 554.813288 962.536541 755.390607C962.536541 782.931867 940.062497 805.499748 912.615074 805.499748L807.798763 805.499748C780.35134 805.499748 757.877297 782.931867 757.877297 755.390607L757.877297 743.660939C767.870974 726.113356 772.844353 706.079084 772.844353 685.200275L772.844353 423.628683C772.844353 372.675006 742.065704 328.38378 697.962153 309.147125L697.962153 289.112852C697.962153 261.524674 720.436197 238.956793 747.88362 238.956793L972.530218 238.956793C999.97764 238.956793 1022.451684 261.524674 1022.451684 289.112852L1022.451684 504.704147C1022.451684 532.245407 999.97764 554.813288 972.530218 554.813288ZM861.051455 202.219473C805.452829 202.219473 760.363986 156.942955 760.363986 101.109737 760.363986 45.276518 805.452829 0 861.051455 0 916.65008 0 961.738923 45.276518 961.738923 101.109737 961.738923 156.942955 916.65008 202.219473 861.051455 202.219473ZM698.80669 506.3463 698.80669 685.997892C698.80669 713.586071 676.332646 736.153952 648.885223 736.153952L629.742405 736.153952 629.742405 973.468591C629.742405 1001.05677 607.268362 1023.577732 579.820939 1023.577732L445.868133 1023.577732C418.373792 1023.577732 395.946667 1001.05677 395.946667 973.468591L395.946667 736.998488 376.803849 736.998488C349.356426 736.998488 326.882383 714.430607 326.882383 686.842428L326.882383 506.3463 326.882383 424.473219C326.882383 396.88504 348.51189 374.317159 376.803849 374.317159L648.885223 374.317159C676.332646 374.317159 698.80669 396.88504 698.80669 424.473219L698.80669 506.3463ZM512.398809 332.559542C448.542497 332.559542 396.744284 280.573654 396.744284 216.388912 396.744284 152.251088 448.542497 100.2652 512.398809 100.2652 576.302039 100.2652 628.053333 152.251088 628.053333 216.388912 628.053333 280.573654 576.302039 332.559542 512.398809 332.559542ZM251.155647 424.473219 251.155647 686.842428C251.155647 707.721237 256.973562 727.802428 266.122703 745.350011L266.122703 757.032761C266.122703 784.620939 243.64866 807.18882 216.201237 807.18882L111.384926 807.18882C83.937503 807.18882 61.463459 784.620939 61.463459 757.032761L61.463459 556.50236 51.469782 556.50236C23.177824 556.50236 1.548316 533.934479 1.548316 506.3463L1.548316 289.957388C1.548316 262.36921 24.02236 239.801329 51.469782 239.801329L276.11638 239.801329C303.563803 239.801329 326.037847 262.36921 326.037847 289.957388L326.037847 309.991661C281.934296 329.228316 251.155647 373.519542 251.155647 424.473219ZM163.793081 202.219473C108.194456 202.219473 63.105613 156.942955 63.105613 101.109737 63.105613 45.276518 108.194456 0 163.793081 0 219.391707 0 264.48055 45.276518 264.48055 101.109737 264.48055 156.942955 219.391707 202.219473 163.793081 202.219473Z" p-id="3378" fill="#000000"></path></svg>